<?xml version="1.0" standalone="no"?>
<!DOCTYPE svg PUBLIC "-//W3C//DTD SVG 20010904//EN"
 "http://www.w3.org/TR/2001/REC-SVG-20010904/DTD/svg10.dtd">
<svg version="1.0" xmlns="http://www.w3.org/2000/svg"
 width="1500.000000pt" height="1500.000000pt" viewBox="0 0 1500.000000 1500.000000"
 preserveAspectRatio="xMidYMid meet">

<g transform="translate(0.000000,1500.000000) scale(0.100000,-0.100000)"
fill="#000000" stroke="none">
<path d="M1520 8130 l0 -3210 1110 0 1110 0 0 671 0 671 -492 802 c-270 440
-520 847 -554 903 l-63 101 196 117 c107 65 198 113 203 109 4 -5 277 -448
606 -984 329 -536 718 -1168 864 -1405 l265 -430 556 -3 556 -2 509 859 509
858 3 -106 c2 -58 6 -567 10 -1131 l7 -1025 320 -2 320 -3 788 920 787 920 0
963 0 962 -1056 1205 c-581 663 -1057 1206 -1058 1208 -2 1 -378 -628 -836
-1399 -750 -1261 -835 -1399 -847 -1382 -8 10 -185 297 -393 638 -209 341
-622 1016 -918 1500 l-539 880 -981 3 -982 2 0 -3210z"/>
<path d="M7426 11307 c16 -18 451 -515 968 -1105 l939 -1072 696 -2 696 -3 3
-1225 c2 -788 -1 -1267 -8 -1342 -33 -382 -220 -555 -575 -535 -212 12 -428
116 -623 301 -45 43 -55 48 -66 35 -8 -8 -357 -414 -776 -904 l-762 -889 38
-34 c200 -175 569 -399 829 -502 449 -180 862 -266 1396 -292 811 -40 1575
123 2103 450 616 381 1003 1002 1145 1838 58 339 54 163 58 2847 l4 2467
-3047 0 -3046 0 28 -33z"/>
</g>
</svg>
