<svg id="svg" version="1.1" xmlns="http://www.w3.org/2000/svg" xmlns:xlink="http://www.w3.org/1999/xlink" width="400" height="400" viewBox="0, 0, 400,400"><g id="svgg"><path id="path0" d="M229.894 83.567 C 229.511 84.029,229.492 115.227,229.874 116.558 C 230.011 117.036,230.605 117.905,231.195 118.489 C 231.784 119.072,232.282 119.651,232.300 119.775 C 232.318 119.899,232.348 120.150,232.367 120.333 C 232.385 120.517,232.526 120.667,232.679 120.667 C 232.971 120.667,235.733 123.322,235.733 123.602 C 235.733 123.691,236.749 124.916,237.990 126.324 C 239.230 127.732,240.172 129.004,240.082 129.150 C 239.991 129.296,240.043 129.338,240.196 129.244 C 240.533 129.036,241.922 130.780,241.655 131.077 C 241.551 131.191,241.599 131.210,241.760 131.119 C 242.061 130.947,242.206 131.092,244.908 134.267 C 245.781 135.293,246.685 136.322,246.915 136.554 C 247.145 136.785,247.715 137.445,248.182 138.020 C 248.648 138.596,249.410 139.487,249.875 140.000 C 250.339 140.513,251.398 141.713,252.226 142.667 C 253.055 143.620,254.288 145.000,254.965 145.733 C 255.642 146.467,256.602 147.546,257.098 148.132 C 257.594 148.719,258.270 149.417,258.600 149.685 C 258.930 149.953,259.200 150.314,259.200 150.489 C 259.200 151.473,259.720 151.499,281.824 151.599 L 303.333 151.697 303.333 191.982 C 303.333 214.138,303.255 232.267,303.158 232.267 C 303.062 232.267,303.046 232.505,303.122 232.796 C 303.198 233.087,303.169 233.537,303.058 233.796 C 302.948 234.055,302.884 234.610,302.918 235.030 C 302.958 235.519,302.877 235.730,302.693 235.616 C 302.524 235.512,302.464 235.590,302.547 235.807 C 302.625 236.009,302.545 236.525,302.370 236.954 C 302.195 237.383,302.021 237.880,301.984 238.060 C 301.774 239.068,300.892 240.995,300.463 241.380 C 300.189 241.625,299.973 241.895,299.982 241.980 C 300.042 242.502,299.881 242.756,298.791 243.861 C 298.108 244.555,297.453 245.007,297.283 244.902 C 297.119 244.801,297.056 244.834,297.144 244.977 C 297.232 245.119,296.951 245.444,296.519 245.699 C 296.087 245.955,295.733 246.074,295.733 245.964 C 295.733 245.854,295.572 245.986,295.374 246.256 C 295.147 246.566,294.885 246.668,294.666 246.533 C 294.450 246.399,294.382 246.423,294.488 246.594 C 294.670 246.888,292.593 247.535,292.216 247.302 C 292.097 247.229,292.000 247.310,292.000 247.482 C 292.000 247.673,291.738 247.745,291.327 247.667 C 290.957 247.596,290.590 247.641,290.512 247.768 C 290.434 247.894,289.987 248.003,289.518 248.011 C 289.050 248.018,288.067 248.038,287.333 248.055 C 283.615 248.140,279.850 247.659,280.171 247.139 C 280.276 246.969,280.225 246.928,280.045 247.039 C 279.570 247.333,275.669 245.808,273.467 244.468 C 271.670 243.375,270.151 242.294,270.259 242.185 C 270.329 242.116,269.892 241.815,269.289 241.517 C 268.686 241.218,268.135 240.755,268.065 240.487 C 267.995 240.219,267.813 240.000,267.661 240.000 C 267.257 240.000,265.538 238.640,265.716 238.461 C 266.137 238.041,264.997 237.373,264.307 237.635 C 263.918 237.783,263.540 237.896,263.467 237.885 C 263.393 237.875,263.333 237.981,263.333 238.120 C 263.333 238.259,263.183 238.523,263.000 238.707 C 262.817 238.890,262.667 239.201,262.667 239.398 C 262.667 239.595,262.459 239.721,262.206 239.678 C 261.953 239.635,261.739 239.720,261.732 239.867 C 261.709 240.358,260.744 241.597,260.502 241.447 C 260.371 241.366,260.183 241.517,260.086 241.783 C 259.892 242.313,258.784 243.735,258.630 243.652 C 258.577 243.623,258.556 243.642,258.583 243.694 C 258.684 243.885,255.617 247.333,255.346 247.333 C 255.193 247.333,255.064 247.453,255.060 247.600 C 255.047 248.088,254.079 249.331,253.831 249.178 C 253.697 249.095,253.620 249.127,253.660 249.249 C 253.791 249.646,249.363 254.843,248.993 254.727 C 248.865 254.686,248.820 254.751,248.894 254.869 C 249.057 255.134,247.609 256.836,247.371 256.660 C 247.277 256.590,247.255 256.608,247.322 256.700 C 247.514 256.962,246.101 258.678,245.830 258.511 C 245.696 258.428,245.616 258.459,245.653 258.580 C 245.766 258.958,244.758 260.267,244.354 260.267 C 244.142 260.267,244.036 260.377,244.119 260.511 C 244.315 260.828,242.989 262.406,242.594 262.327 C 242.427 262.294,242.282 262.387,242.272 262.533 C 242.233 263.076,241.266 264.256,240.996 264.090 C 240.843 263.995,240.791 264.036,240.880 264.180 C 241.105 264.545,239.489 266.445,239.137 266.228 C 238.970 266.124,238.928 266.176,239.037 266.352 C 239.141 266.521,238.748 267.169,238.145 267.823 C 237.552 268.467,237.067 269.050,237.067 269.120 C 237.067 269.381,234.943 271.467,234.677 271.467 C 234.525 271.467,234.430 271.562,234.467 271.679 C 234.557 271.966,233.169 273.602,232.963 273.452 C 232.873 273.387,232.858 273.411,232.929 273.506 C 232.999 273.601,232.669 274.116,232.195 274.650 C 231.721 275.185,231.049 276.002,230.702 276.467 C 230.354 276.932,229.934 277.287,229.768 277.256 C 229.602 277.225,229.499 277.356,229.538 277.546 C 229.577 277.737,228.947 278.565,228.138 279.387 C 227.329 280.209,226.667 280.928,226.667 280.985 C 226.667 281.315,225.476 282.622,225.284 282.503 C 225.157 282.425,225.086 282.465,225.127 282.593 C 225.234 282.935,223.825 284.536,223.607 284.319 C 223.506 284.217,223.459 284.253,223.504 284.400 C 223.625 284.797,222.660 286.133,222.252 286.133 C 222.057 286.133,221.813 286.272,221.708 286.441 C 221.580 286.648,221.641 286.678,221.892 286.533 C 222.205 286.353,221.714 286.980,220.430 288.400 C 220.283 288.562,220.273 288.510,220.404 288.267 C 220.531 288.030,220.520 287.957,220.376 288.089 C 220.243 288.211,220.133 288.410,220.133 288.531 C 220.133 288.762,219.147 290.042,217.637 291.771 C 216.535 293.032,216.640 293.829,218.014 294.639 C 218.592 294.980,218.890 295.321,218.774 295.508 C 218.670 295.677,218.695 295.747,218.831 295.663 C 218.966 295.580,219.795 296.037,220.672 296.679 C 221.549 297.322,222.712 298.171,223.256 298.567 C 223.800 298.962,224.181 299.390,224.103 299.516 C 224.024 299.643,224.059 299.729,224.180 299.708 C 224.748 299.610,225.081 299.762,224.908 300.041 C 224.802 300.212,224.834 300.277,224.978 300.188 C 225.237 300.028,227.679 301.614,228.017 302.161 C 228.114 302.318,228.240 302.413,228.296 302.374 C 228.613 302.156,229.630 302.669,229.452 302.957 C 229.341 303.136,229.362 303.214,229.498 303.130 C 229.793 302.948,233.938 305.173,233.717 305.394 C 233.633 305.478,233.722 305.532,233.916 305.513 C 234.264 305.480,241.611 308.978,241.867 309.300 C 241.940 309.391,242.120 309.473,242.267 309.482 C 242.876 309.515,243.989 309.936,243.890 310.095 C 243.832 310.189,244.043 310.282,244.359 310.302 C 244.675 310.321,246.073 310.779,247.467 311.320 C 248.860 311.860,250.240 312.364,250.533 312.440 C 250.827 312.516,251.307 312.677,251.600 312.798 C 251.893 312.918,252.701 313.163,253.395 313.342 C 254.089 313.520,254.603 313.754,254.537 313.861 C 254.470 313.969,254.730 313.996,255.114 313.923 C 255.592 313.832,255.753 313.885,255.626 314.092 C 255.506 314.286,255.587 314.337,255.853 314.235 C 256.080 314.148,256.267 314.179,256.268 314.305 C 256.269 314.430,256.707 314.556,257.242 314.584 C 257.777 314.612,258.287 314.732,258.374 314.851 C 258.462 314.969,258.953 315.101,259.467 315.142 C 259.980 315.184,260.436 315.321,260.479 315.447 C 260.523 315.574,260.763 315.625,261.013 315.562 C 261.262 315.499,262.842 315.753,264.524 316.127 C 266.205 316.501,269.264 317.056,271.321 317.360 C 273.377 317.665,275.153 317.971,275.268 318.042 C 275.382 318.113,276.489 318.212,277.728 318.263 C 278.967 318.314,280.131 318.449,280.315 318.563 C 280.717 318.812,282.396 318.850,293.200 318.860 C 305.100 318.870,306.400 318.842,306.400 318.573 C 306.400 318.440,306.942 318.392,307.604 318.466 C 308.267 318.541,308.880 318.486,308.969 318.343 C 309.057 318.201,309.709 318.134,310.418 318.196 C 311.128 318.258,311.656 318.224,311.593 318.121 C 311.447 317.885,314.328 317.556,315.133 317.716 C 315.463 317.782,315.733 317.709,315.733 317.554 C 315.733 317.396,316.028 317.328,316.400 317.399 C 316.767 317.469,317.067 317.410,317.067 317.267 C 317.067 317.125,317.478 317.056,317.981 317.115 C 318.484 317.174,318.847 317.142,318.786 317.044 C 318.635 316.800,320.765 316.480,321.113 316.695 C 321.267 316.790,321.488 316.714,321.605 316.526 C 321.721 316.337,322.338 316.172,322.975 316.158 C 323.612 316.145,324.198 316.048,324.276 315.943 C 324.445 315.719,329.724 314.347,330.600 314.299 C 330.930 314.281,331.200 314.193,331.200 314.103 C 331.200 313.833,334.092 313.009,334.390 313.194 C 334.542 313.288,334.667 313.249,334.667 313.107 C 334.667 312.769,337.855 311.695,338.209 311.914 C 338.360 312.006,338.404 311.956,338.308 311.801 C 338.212 311.645,338.462 311.391,338.867 311.233 C 341.978 310.022,344.062 309.112,344.327 308.847 C 344.499 308.674,344.849 308.533,345.104 308.533 C 345.360 308.533,345.648 308.405,345.745 308.248 C 345.841 308.092,346.081 308.025,346.276 308.100 C 346.472 308.175,346.670 308.149,346.716 308.042 C 346.993 307.399,350.339 305.538,350.773 305.785 C 350.934 305.877,350.983 305.859,350.881 305.746 C 350.779 305.633,351.439 305.058,352.348 304.469 C 353.257 303.880,354.352 303.154,354.783 302.855 C 355.213 302.556,355.723 302.311,355.916 302.311 C 356.109 302.311,356.211 302.255,356.142 302.187 C 356.074 302.118,356.524 301.700,357.142 301.257 C 358.269 300.449,361.023 298.150,361.934 297.257 C 362.201 296.995,362.538 296.854,362.683 296.943 C 362.828 297.033,362.921 297.007,362.890 296.886 C 362.793 296.509,367.248 291.998,367.539 292.178 C 367.691 292.272,367.737 292.221,367.640 292.064 C 367.543 291.908,368.038 291.139,368.741 290.356 C 369.443 289.574,370.330 288.550,370.713 288.081 C 371.095 287.613,371.500 287.313,371.613 287.415 C 371.726 287.517,371.738 287.460,371.640 287.288 C 371.542 287.117,371.617 286.817,371.808 286.621 C 371.998 286.426,372.429 285.816,372.766 285.265 C 373.130 284.670,373.505 284.336,373.689 284.441 C 373.860 284.539,373.919 284.529,373.820 284.419 C 373.498 284.060,376.866 278.400,377.402 278.400 C 377.560 278.400,377.619 278.330,377.533 278.244 C 377.287 277.998,377.890 276.516,378.166 276.687 C 378.302 276.771,378.380 276.739,378.340 276.617 C 378.236 276.301,380.594 271.200,380.844 271.200 C 380.957 271.200,380.973 271.000,380.880 270.756 C 380.766 270.460,380.812 270.376,381.018 270.503 C 381.226 270.632,381.270 270.546,381.154 270.242 C 381.051 269.975,381.145 269.669,381.383 269.495 C 381.821 269.175,381.867 269.060,381.867 268.286 C 381.867 268.003,382.017 267.613,382.200 267.419 C 382.383 267.225,382.533 266.947,382.533 266.800 C 382.533 266.231,383.276 264.015,383.433 264.113 C 383.525 264.169,383.619 263.903,383.642 263.520 C 383.694 262.656,384.581 260.000,384.818 260.000 C 384.914 260.000,384.932 259.682,384.858 259.294 C 384.771 258.840,384.823 258.649,385.003 258.761 C 385.181 258.871,385.229 258.724,385.133 258.359 C 385.037 257.990,385.085 257.846,385.266 257.959 C 385.445 258.069,385.499 257.936,385.411 257.600 C 385.334 257.307,385.394 257.067,385.544 257.067 C 385.694 257.067,385.754 256.827,385.677 256.533 C 385.601 256.240,385.655 256.000,385.799 256.000 C 385.942 256.000,386.002 255.700,385.932 255.333 C 385.862 254.967,385.927 254.667,386.077 254.667 C 386.227 254.667,386.287 254.427,386.211 254.133 C 386.134 253.840,386.179 253.600,386.312 253.600 C 386.444 253.600,386.571 253.390,386.593 253.133 C 386.817 250.567,387.222 248.267,387.451 248.267 C 387.555 248.267,387.588 247.907,387.524 247.467 C 387.454 246.996,387.526 246.667,387.696 246.667 C 387.877 246.667,387.926 246.364,387.827 245.867 C 387.739 245.427,387.775 245.067,387.907 245.067 C 388.039 245.067,388.102 244.587,388.046 244.000 C 387.982 243.332,388.055 242.933,388.242 242.933 C 388.440 242.933,388.483 242.576,388.369 241.867 C 388.259 241.178,388.300 240.800,388.485 240.800 C 388.669 240.800,388.719 240.368,388.624 239.595 C 388.529 238.818,388.596 238.246,388.812 237.986 C 389.081 237.661,389.079 237.455,388.802 236.936 C 388.511 236.394,388.522 236.190,388.870 235.659 C 389.193 235.167,389.255 234.540,389.150 232.838 C 389.074 231.608,389.128 230.508,389.273 230.325 C 389.487 230.055,389.472 87.134,389.257 84.133 L 389.200 83.333 309.700 83.266 C 242.338 83.209,230.153 83.255,229.894 83.567 M229.610 144.781 C 229.626 149.157,229.723 150.970,229.950 151.158 C 230.189 151.356,239.612 151.644,240.873 151.492 C 240.986 151.478,240.896 151.187,240.672 150.845 C 240.448 150.504,240.325 150.144,240.399 150.045 C 240.473 149.947,240.453 149.927,240.354 150.002 C 240.094 150.198,238.378 148.252,238.556 147.963 C 238.639 147.829,238.607 147.752,238.486 147.790 C 238.254 147.864,236.003 145.685,235.995 145.379 C 235.993 145.280,235.693 144.918,235.330 144.573 C 234.966 144.228,234.747 143.820,234.842 143.665 C 234.939 143.509,234.889 143.462,234.731 143.560 C 234.386 143.773,232.734 141.763,233.007 141.461 C 233.113 141.344,233.073 141.320,232.917 141.408 C 232.762 141.497,232.059 140.916,231.355 140.118 C 229.549 138.069,229.585 137.972,229.610 144.781 M248.908 226.962 C 247.309 228.885,245.878 230.595,245.730 230.762 C 245.581 230.930,244.801 231.847,243.996 232.800 C 243.192 233.753,242.468 234.593,242.389 234.667 C 242.235 234.808,236.947 241.120,236.268 241.971 C 236.047 242.248,235.310 243.088,234.629 243.837 C 233.948 244.587,232.876 245.860,232.247 246.667 C 231.619 247.473,230.368 248.973,229.469 250.000 C 228.570 251.027,227.542 252.242,227.184 252.700 C 226.347 253.773,222.352 258.492,222.133 258.667 C 222.042 258.740,221.041 259.940,219.909 261.333 C 218.778 262.727,217.250 264.548,216.513 265.381 C 215.777 266.214,214.674 267.534,214.061 268.314 C 213.448 269.095,212.804 269.824,212.629 269.934 C 212.454 270.045,211.749 270.885,211.063 271.801 C 210.378 272.717,209.314 274.007,208.701 274.667 C 207.098 276.391,204.265 279.919,204.276 280.179 C 204.293 280.626,205.361 281.678,205.557 281.443 C 209.101 277.183,209.743 276.502,209.999 276.734 C 210.120 276.844,210.144 276.803,210.053 276.643 C 209.962 276.483,210.333 275.865,210.877 275.270 C 211.421 274.676,212.287 273.635,212.800 272.958 C 213.313 272.282,213.952 271.658,214.220 271.573 C 214.488 271.488,214.639 271.350,214.556 271.267 C 214.473 271.184,214.850 270.685,215.395 270.158 C 215.939 269.631,216.408 269.044,216.437 268.853 C 216.517 268.332,217.084 267.733,217.499 267.733 C 217.701 267.733,217.867 267.583,217.867 267.400 C 217.867 267.216,218.340 266.526,218.918 265.867 C 219.496 265.207,220.504 264.045,221.159 263.286 C 221.814 262.527,222.418 261.974,222.502 262.058 C 222.586 262.141,222.739 261.982,222.842 261.705 C 223.125 260.944,225.375 258.256,225.659 258.340 C 225.795 258.380,225.844 258.312,225.767 258.188 C 225.608 257.930,226.826 256.533,227.211 256.533 C 227.352 256.533,227.467 256.363,227.467 256.154 C 227.467 255.621,228.796 254.099,229.098 254.286 C 229.235 254.370,229.317 254.341,229.281 254.220 C 229.171 253.855,230.173 252.527,230.436 252.689 C 230.570 252.772,230.647 252.730,230.607 252.596 C 230.523 252.316,235.177 246.667,235.491 246.667 C 235.604 246.667,235.772 246.433,235.862 246.147 C 235.953 245.861,236.263 245.553,236.551 245.461 C 236.839 245.370,237.006 245.184,236.921 245.047 C 236.837 244.911,236.866 244.799,236.984 244.798 C 237.103 244.797,237.409 244.430,237.664 243.981 C 237.919 243.532,238.249 243.240,238.398 243.332 C 238.546 243.423,238.667 243.318,238.667 243.097 C 238.667 242.877,239.096 242.240,239.621 241.682 C 240.146 241.123,241.060 240.037,241.653 239.267 C 242.246 238.497,242.896 237.867,243.099 237.867 C 243.301 237.867,243.467 237.705,243.467 237.508 C 243.467 237.311,243.723 236.921,244.036 236.641 C 244.348 236.362,245.057 235.533,245.611 234.800 C 246.165 234.067,247.228 232.807,247.973 232.000 C 248.719 231.193,249.600 230.143,249.931 229.666 C 250.262 229.189,250.745 228.731,251.004 228.647 C 251.263 228.563,251.417 228.402,251.346 228.288 C 251.276 228.174,251.754 227.452,252.409 226.685 C 253.817 225.036,253.783 225.213,252.868 224.243 C 251.897 223.214,252.197 223.009,248.908 226.962 " stroke="none" fill="#fb6bb3" fill-rule="evenodd"></path><path id="path1" d="M18.200 83.420 C 17.933 83.589,17.879 103.618,17.933 182.683 L 18.000 281.733 51.733 281.806 C 70.287 281.847,85.737 281.814,86.067 281.735 L 86.667 281.590 86.667 261.125 L 86.667 240.660 85.722 239.256 C 85.202 238.485,84.849 237.736,84.937 237.593 C 85.026 237.450,84.991 237.333,84.861 237.333 C 84.554 237.333,82.844 234.700,82.844 234.227 C 82.844 234.029,82.785 233.927,82.711 234.000 C 82.638 234.073,82.236 233.533,81.817 232.800 C 81.368 232.014,80.867 231.465,80.595 231.463 C 80.199 231.459,80.191 231.422,80.533 231.200 C 80.800 231.028,80.822 230.940,80.600 230.937 C 80.417 230.935,80.267 230.717,80.267 230.453 C 80.267 230.189,80.123 229.829,79.947 229.653 C 79.771 229.477,79.741 229.331,79.880 229.329 C 80.019 229.327,80.003 229.237,79.843 229.129 C 79.311 228.770,77.601 226.081,77.751 225.839 C 77.832 225.707,77.788 225.600,77.653 225.600 C 77.395 225.600,75.963 223.451,74.277 220.533 C 73.726 219.580,73.162 218.729,73.024 218.643 C 72.886 218.556,72.754 218.234,72.731 217.928 C 72.708 217.621,72.606 217.422,72.505 217.484 C 72.403 217.547,72.055 217.089,71.731 216.466 C 70.947 214.956,69.401 212.487,68.333 211.038 C 67.857 210.391,67.467 209.767,67.467 209.652 C 67.467 209.536,66.743 208.267,65.859 206.832 C 64.975 205.396,64.225 204.096,64.193 203.942 C 64.160 203.787,63.863 203.360,63.533 202.992 C 63.203 202.623,62.933 202.208,62.933 202.069 C 62.933 201.930,62.697 201.484,62.408 201.078 C 62.119 200.672,61.969 200.244,62.075 200.127 C 62.180 200.010,62.125 199.995,61.953 200.094 C 61.765 200.202,61.562 200.031,61.448 199.671 C 61.343 199.338,60.731 198.312,60.087 197.389 C 59.430 196.448,58.997 195.569,59.101 195.389 C 59.202 195.212,59.187 195.156,59.067 195.265 C 58.821 195.487,56.757 192.285,56.948 191.976 C 57.015 191.868,56.960 191.739,56.825 191.689 C 56.360 191.519,54.668 188.747,54.843 188.441 C 54.940 188.272,54.919 188.224,54.797 188.335 C 54.674 188.446,54.149 187.786,53.630 186.868 C 52.627 185.096,52.432 184.533,52.822 184.533 C 53.054 184.533,53.988 183.814,54.957 182.889 C 55.213 182.644,55.473 182.495,55.535 182.557 C 55.596 182.619,56.394 182.186,57.307 181.596 C 58.220 181.006,59.098 180.604,59.258 180.703 C 59.421 180.803,59.474 180.760,59.378 180.605 C 59.283 180.452,59.457 180.262,59.763 180.182 C 60.117 180.089,60.247 179.917,60.119 179.710 C 59.996 179.511,60.029 179.453,60.204 179.561 C 60.528 179.762,63.249 178.162,63.072 177.875 C 63.009 177.773,63.102 177.683,63.278 177.676 C 63.455 177.669,63.794 177.583,64.031 177.484 C 64.559 177.263,65.967 178.820,65.751 179.385 C 65.671 179.592,65.705 179.700,65.827 179.625 C 65.948 179.550,66.324 179.993,66.662 180.611 C 67.001 181.228,67.506 181.988,67.786 182.299 C 68.066 182.610,68.314 183.120,68.337 183.432 C 68.361 183.744,68.453 184.000,68.541 184.000 C 68.770 184.000,70.003 186.222,69.921 186.486 C 69.884 186.607,69.968 186.635,70.108 186.549 C 70.370 186.387,70.748 186.822,70.833 187.382 C 70.859 187.555,71.343 188.375,71.907 189.204 C 72.472 190.032,73.051 190.911,73.195 191.155 C 73.338 191.400,73.780 192.140,74.176 192.800 C 74.571 193.460,74.934 194.176,74.981 194.391 C 75.028 194.606,75.264 194.966,75.504 195.191 C 76.033 195.685,78.400 199.613,78.400 199.995 C 78.400 200.145,78.640 200.507,78.933 200.800 C 79.227 201.093,79.467 201.513,79.467 201.733 C 79.467 201.953,79.587 202.133,79.733 202.133 C 79.880 202.133,80.000 202.360,80.000 202.638 C 80.000 202.916,80.159 203.204,80.353 203.278 C 80.722 203.420,82.286 205.905,82.947 207.400 C 83.158 207.877,83.481 208.267,83.665 208.267 C 83.849 208.267,84.000 208.441,84.000 208.655 C 84.000 208.868,84.301 209.487,84.670 210.030 C 85.038 210.572,85.282 211.074,85.212 211.144 C 85.142 211.214,85.374 211.498,85.727 211.776 C 86.080 212.053,86.451 212.541,86.552 212.859 C 86.770 213.547,88.227 216.018,88.642 216.405 C 89.185 216.912,89.619 217.887,89.434 218.185 C 89.323 218.366,89.372 218.408,89.559 218.292 C 89.728 218.187,89.867 218.202,89.867 218.324 C 89.867 218.446,90.290 219.189,90.808 219.975 C 91.326 220.762,91.696 221.459,91.631 221.525 C 91.565 221.591,91.745 221.879,92.032 222.165 C 92.318 222.452,92.481 222.802,92.394 222.943 C 92.307 223.084,92.348 223.200,92.487 223.200 C 92.795 223.200,93.689 224.524,93.689 224.980 C 93.689 225.161,93.789 225.248,93.911 225.173 C 94.033 225.097,94.133 225.183,94.133 225.363 C 94.133 225.544,94.304 225.881,94.512 226.112 C 94.721 226.344,94.931 226.713,94.979 226.932 C 95.027 227.152,95.210 227.452,95.385 227.599 C 95.561 227.746,95.741 228.044,95.785 228.260 C 95.830 228.477,96.137 228.875,96.467 229.146 C 96.797 229.417,97.067 229.870,97.067 230.153 C 97.067 230.435,97.311 230.911,97.610 231.210 C 97.908 231.508,98.070 231.887,97.969 232.051 C 97.861 232.225,97.904 232.275,98.073 232.171 C 98.342 232.004,98.839 232.949,98.720 233.400 C 98.690 233.510,98.809 233.570,98.983 233.533 C 99.157 233.497,99.493 233.861,99.728 234.344 C 99.966 234.830,100.266 235.127,100.403 235.011 C 100.538 234.895,100.477 235.040,100.267 235.333 C 100.056 235.627,99.991 235.776,100.121 235.666 C 100.251 235.555,100.658 235.975,101.025 236.599 C 101.393 237.223,101.799 237.804,101.927 237.891 C 102.055 237.977,102.179 238.299,102.202 238.606 C 102.225 238.912,102.316 239.119,102.403 239.065 C 102.563 238.966,103.439 240.427,103.524 240.933 C 103.548 241.080,103.846 241.499,104.184 241.864 C 104.523 242.229,104.800 242.640,104.800 242.776 C 104.800 242.913,104.971 243.214,105.179 243.446 C 105.387 243.677,105.597 244.037,105.646 244.244 C 105.694 244.452,105.948 244.847,106.210 245.121 C 106.472 245.395,106.613 245.738,106.523 245.883 C 106.434 246.028,106.512 246.114,106.697 246.073 C 107.078 245.990,108.025 247.738,107.798 248.108 C 107.717 248.241,107.770 248.275,107.916 248.185 C 108.221 247.997,109.411 249.966,109.150 250.227 C 109.055 250.322,109.120 250.400,109.293 250.400 C 109.705 250.400,110.686 252.019,110.478 252.356 C 110.390 252.499,110.442 252.539,110.595 252.444 C 110.748 252.350,110.936 252.514,111.013 252.809 C 111.090 253.104,111.167 253.399,111.185 253.465 C 111.202 253.531,111.575 253.977,112.012 254.456 C 112.450 254.936,112.750 255.479,112.679 255.664 C 112.608 255.849,112.663 256.000,112.802 256.000 C 113.031 256.000,113.893 257.404,113.866 257.736 C 113.860 257.814,114.158 258.204,114.528 258.603 C 114.897 259.002,115.200 259.411,115.200 259.512 C 115.200 259.613,115.387 259.883,115.616 260.112 C 115.845 260.341,116.050 260.761,116.072 261.046 C 116.093 261.330,116.206 261.504,116.322 261.432 C 116.438 261.361,116.533 261.440,116.533 261.609 C 116.533 261.778,116.772 262.219,117.063 262.589 C 117.354 262.960,117.527 263.369,117.447 263.498 C 117.367 263.627,117.496 263.733,117.733 263.733 C 117.971 263.733,118.086 263.861,117.989 264.018 C 117.892 264.174,118.035 264.470,118.307 264.676 C 118.919 265.140,152.533 265.262,152.533 264.800 C 152.533 264.653,152.713 264.533,152.933 264.533 C 153.153 264.533,153.333 264.421,153.333 264.284 C 153.333 263.879,154.992 261.333,155.256 261.333 C 155.389 261.333,155.424 261.214,155.334 261.067 C 155.117 260.717,155.850 259.679,156.133 259.935 C 156.254 260.044,156.278 260.003,156.188 259.845 C 156.098 259.686,156.301 259.146,156.641 258.645 C 156.980 258.143,157.344 257.461,157.449 257.128 C 157.554 256.795,158.020 256.015,158.486 255.395 C 158.952 254.774,159.504 253.937,159.712 253.533 C 159.920 253.130,160.197 252.800,160.327 252.800 C 160.458 252.800,160.502 252.698,160.425 252.574 C 160.348 252.449,160.514 252.102,160.793 251.802 C 161.073 251.502,161.240 251.195,161.165 251.120 C 161.090 251.045,161.337 250.495,161.714 249.897 C 162.091 249.300,162.400 248.743,162.400 248.661 C 162.400 248.578,162.640 248.253,162.933 247.939 C 163.227 247.624,163.467 247.149,163.467 246.883 C 163.467 246.617,163.581 246.400,163.720 246.400 C 163.860 246.400,164.410 245.620,164.943 244.667 C 165.476 243.713,166.029 242.933,166.172 242.933 C 166.315 242.933,166.357 242.814,166.267 242.667 C 166.044 242.306,166.786 241.286,167.091 241.535 C 167.224 241.644,167.253 241.633,167.154 241.510 C 167.056 241.387,167.326 240.691,167.754 239.965 C 168.183 239.238,168.533 238.547,168.533 238.429 C 168.533 238.311,168.743 237.960,169.000 237.649 C 169.257 237.338,169.876 236.362,170.375 235.480 C 170.875 234.598,171.482 233.665,171.724 233.405 C 171.965 233.146,172.205 232.813,172.256 232.667 C 172.637 231.576,173.098 230.706,173.448 230.415 C 173.675 230.227,173.803 229.980,173.733 229.867 C 173.663 229.753,173.785 229.512,174.003 229.331 C 174.221 229.150,174.400 228.854,174.400 228.674 C 174.400 228.494,174.760 227.850,175.200 227.242 C 175.640 226.635,176.000 226.006,176.000 225.844 C 176.000 225.385,176.974 224.263,177.187 224.476 C 177.292 224.581,177.343 224.547,177.301 224.400 C 177.258 224.253,177.428 223.749,177.679 223.280 C 177.929 222.811,178.133 222.246,178.133 222.026 C 178.133 221.806,178.343 221.504,178.600 221.355 C 178.972 221.138,178.985 221.078,178.667 221.058 C 178.427 221.043,178.504 220.937,178.858 220.795 C 179.184 220.664,179.639 220.162,179.870 219.678 C 180.846 217.641,182.049 215.737,182.239 215.928 C 182.352 216.041,182.411 216.013,182.369 215.867 C 182.230 215.370,182.702 214.390,182.994 214.571 C 183.156 214.671,183.206 214.626,183.109 214.469 C 183.014 214.315,183.109 213.855,183.321 213.447 C 183.533 213.039,183.629 212.576,183.535 212.419 C 183.441 212.262,183.590 212.313,183.867 212.533 C 184.159 212.766,184.285 212.794,184.169 212.600 C 184.059 212.417,184.096 212.267,184.251 212.267 C 184.406 212.267,184.545 212.297,184.559 212.333 C 184.574 212.370,184.630 218.400,184.685 225.733 C 185.005 268.250,185.139 281.481,185.251 281.600 C 185.473 281.835,204.533 281.895,204.533 281.661 C 204.533 281.537,204.357 281.202,204.142 280.918 C 203.515 280.089,203.644 279.747,205.286 277.890 C 206.141 276.924,207.071 275.845,207.353 275.492 C 208.303 274.304,211.973 270.014,213.418 268.400 C 214.207 267.520,215.360 266.050,215.982 265.133 C 216.605 264.217,217.222 263.467,217.354 263.467 C 217.486 263.467,218.327 262.537,219.223 261.400 C 220.119 260.263,221.292 258.853,221.829 258.267 C 222.366 257.680,223.705 256.122,224.803 254.803 C 225.901 253.485,227.050 252.150,227.356 251.835 C 227.662 251.521,228.382 250.679,228.956 249.965 C 229.530 249.251,230.067 248.607,230.149 248.533 C 230.231 248.460,230.484 248.127,230.711 247.794 C 230.939 247.461,231.534 246.741,232.033 246.194 C 232.533 245.647,233.420 244.600,234.004 243.867 C 234.589 243.133,235.607 241.953,236.267 241.245 C 236.927 240.536,237.572 239.756,237.700 239.511 C 237.828 239.267,238.069 238.947,238.235 238.800 C 238.401 238.653,239.316 237.582,240.268 236.418 C 241.221 235.255,242.489 233.755,243.086 233.085 C 243.683 232.415,245.177 230.667,246.406 229.200 C 247.634 227.733,248.796 226.437,248.987 226.320 C 249.177 226.203,249.333 226.002,249.333 225.874 C 249.333 225.746,249.663 225.289,250.067 224.858 C 250.470 224.427,251.095 223.745,251.455 223.343 L 252.110 222.610 253.165 223.772 C 254.067 224.765,254.197 224.837,254.059 224.267 C 253.734 222.924,253.840 194.871,254.175 193.429 C 254.408 192.427,254.416 191.816,254.207 191.162 C 253.946 190.345,253.919 190.439,253.894 192.244 C 253.879 193.332,253.805 194.161,253.730 194.085 C 253.655 194.010,253.586 187.393,253.578 179.380 C 253.570 171.368,253.481 164.839,253.381 164.872 C 253.067 164.975,250.885 162.703,250.363 161.728 C 250.088 161.215,249.385 160.363,248.800 159.835 C 248.216 159.307,247.815 158.750,247.910 158.596 C 248.007 158.439,247.955 158.396,247.791 158.498 C 247.629 158.598,247.165 158.249,246.749 157.715 C 246.337 157.185,245.613 156.313,245.140 155.776 C 244.666 155.239,244.276 154.630,244.273 154.422 C 244.269 154.214,244.201 154.111,244.120 154.191 C 243.900 154.411,242.063 152.597,242.230 152.326 C 242.311 152.195,239.595 152.076,236.076 152.055 C 232.612 152.035,229.681 151.921,229.561 151.801 C 229.442 151.682,229.328 148.528,229.308 144.792 C 229.286 140.870,229.162 137.864,229.012 137.678 C 228.870 137.501,228.844 137.201,228.953 137.012 C 229.063 136.822,229.056 136.754,228.939 136.860 C 228.691 137.084,227.211 135.496,227.204 135.000 C 227.202 134.817,227.098 134.697,226.974 134.733 C 226.610 134.841,225.052 133.040,225.242 132.732 C 225.340 132.574,225.289 132.529,225.126 132.630 C 224.964 132.730,224.625 132.453,224.360 132.005 C 224.099 131.562,223.791 131.200,223.676 131.200 C 223.561 131.200,223.467 131.014,223.467 130.787 C 223.467 130.560,223.077 130.205,222.600 129.998 C 222.123 129.790,221.840 129.616,221.969 129.610 C 222.099 129.605,221.905 129.364,221.539 129.076 C 221.172 128.787,220.721 128.187,220.537 127.742 C 220.353 127.297,220.097 126.933,219.968 126.933 C 219.839 126.933,219.733 126.813,219.733 126.666 C 219.733 126.519,219.254 125.966,218.669 125.437 C 218.083 124.908,217.682 124.350,217.777 124.196 C 217.872 124.043,217.823 123.995,217.670 124.090 C 217.516 124.185,216.693 123.394,215.841 122.331 C 214.989 121.269,213.986 120.084,213.613 119.697 C 213.239 119.311,212.514 118.512,212.001 117.922 C 211.488 117.332,210.975 116.907,210.861 116.978 C 210.747 117.049,210.677 117.007,210.707 116.886 C 210.807 116.471,210.047 115.200,209.699 115.200 C 209.374 115.200,208.348 114.034,208.199 113.496 C 208.163 113.365,207.593 112.687,206.933 111.990 C 204.469 109.386,202.601 107.256,202.637 107.093 C 202.658 107.000,202.253 106.554,201.737 106.101 C 201.222 105.648,200.800 105.103,200.800 104.890 C 200.800 104.677,200.697 104.565,200.572 104.643 C 200.446 104.721,199.938 104.278,199.442 103.659 C 198.946 103.040,198.359 102.308,198.137 102.033 C 197.915 101.757,197.099 100.883,196.324 100.090 C 195.479 99.225,194.988 98.517,195.100 98.324 C 195.202 98.146,195.195 98.081,195.084 98.181 C 194.857 98.385,193.163 96.556,193.267 96.218 C 193.303 96.098,193.177 96.000,192.986 96.000 C 192.535 96.000,191.238 94.601,190.214 93.009 C 189.769 92.317,189.329 91.827,189.236 91.920 C 189.143 92.013,189.067 91.963,189.067 91.808 C 189.067 91.654,188.752 91.322,188.367 91.070 C 187.982 90.818,187.750 90.744,187.850 90.906 C 187.950 91.068,187.904 91.200,187.749 91.200 C 187.594 91.200,187.467 91.318,187.467 91.463 C 187.467 91.783,185.853 94.469,185.524 94.696 C 185.394 94.786,185.323 94.906,185.366 94.963 C 185.499 95.139,183.177 99.200,182.944 99.200 C 182.823 99.200,182.649 99.500,182.557 99.867 C 182.465 100.233,182.272 100.533,182.128 100.533 C 181.984 100.533,181.867 100.767,181.867 101.053 C 181.867 101.339,181.695 101.669,181.486 101.787 C 181.276 101.904,181.086 102.087,181.062 102.194 C 180.856 103.137,180.704 103.439,180.496 103.311 C 180.363 103.228,180.280 103.259,180.313 103.380 C 180.445 103.868,179.948 104.800,179.647 104.628 C 179.475 104.529,179.415 104.538,179.514 104.649 C 179.688 104.843,178.678 106.908,178.005 107.733 C 177.826 107.953,177.399 108.643,177.057 109.267 C 176.715 109.890,176.337 110.400,176.218 110.400 C 176.098 110.400,176.024 110.490,176.053 110.600 C 176.161 111.010,175.686 112.002,175.451 111.857 C 175.316 111.774,175.273 111.879,175.354 112.092 C 175.436 112.304,175.271 112.640,174.987 112.839 C 174.704 113.038,174.457 113.320,174.438 113.467 C 174.420 113.613,174.250 113.913,174.062 114.133 C 173.874 114.353,173.723 114.604,173.726 114.690 C 173.730 114.775,173.313 115.495,172.800 116.290 C 172.287 117.084,171.640 118.240,171.363 118.859 C 171.086 119.479,170.757 119.923,170.632 119.846 C 170.508 119.769,170.466 119.862,170.539 120.053 C 170.612 120.244,170.371 120.725,170.003 121.122 C 169.635 121.519,169.333 121.945,169.333 122.068 C 169.333 122.192,169.183 122.443,169.000 122.627 C 168.817 122.810,168.657 123.044,168.644 123.147 C 168.586 123.630,168.000 124.720,167.536 125.209 C 167.252 125.507,166.937 126.082,166.836 126.487 C 166.715 126.969,166.539 127.155,166.326 127.026 C 166.146 126.919,166.180 127.057,166.400 127.333 C 166.620 127.610,166.659 127.751,166.486 127.647 C 166.295 127.533,166.097 127.695,165.982 128.063 C 165.878 128.395,165.539 128.911,165.230 129.209 C 164.920 129.507,164.291 130.492,163.833 131.397 C 163.374 132.303,162.905 132.959,162.790 132.855 C 162.675 132.751,162.665 132.812,162.767 132.990 C 162.869 133.168,162.708 133.558,162.410 133.857 C 162.111 134.156,161.868 134.490,161.869 134.600 C 161.870 134.710,161.693 135.008,161.475 135.263 C 161.257 135.517,160.997 136.050,160.898 136.447 C 160.798 136.845,160.452 137.416,160.129 137.718 C 159.805 138.020,159.456 138.537,159.352 138.867 C 159.249 139.197,159.078 139.467,158.972 139.467 C 158.867 139.467,158.761 139.726,158.737 140.043 C 158.713 140.359,158.590 140.689,158.464 140.776 C 158.204 140.955,155.733 144.896,155.733 145.132 C 155.733 145.217,155.310 145.927,154.792 146.710 C 154.274 147.493,153.781 148.403,153.696 148.733 C 153.611 149.063,153.435 149.333,153.304 149.333 C 153.174 149.333,153.067 149.507,153.067 149.718 C 153.067 149.930,152.844 150.260,152.572 150.452 C 152.299 150.643,151.991 151.070,151.887 151.400 C 151.783 151.730,151.585 152.000,151.449 152.000 C 151.312 152.000,151.224 152.090,151.253 152.200 C 151.282 152.310,150.892 153.167,150.386 154.104 C 149.103 156.483,148.937 156.753,148.341 157.439 C 148.051 157.773,147.739 158.335,147.648 158.689 C 147.558 159.044,147.203 159.633,146.859 160.000 C 146.516 160.367,146.213 160.787,146.187 160.933 C 146.160 161.080,145.984 161.380,145.795 161.600 C 145.415 162.044,145.334 162.243,145.332 162.733 C 145.331 162.917,145.001 163.430,144.599 163.874 C 144.196 164.319,143.829 164.850,143.784 165.056 C 143.739 165.261,143.469 165.756,143.184 166.156 C 142.899 166.555,142.667 167.074,142.667 167.308 C 142.667 167.542,142.574 167.733,142.461 167.733 C 142.347 167.733,142.022 168.183,141.738 168.733 C 141.455 169.283,140.999 170.063,140.726 170.467 C 140.454 170.870,140.299 171.200,140.382 171.200 C 140.465 171.200,140.293 171.470,140.000 171.800 C 138.892 173.046,138.667 173.339,138.663 173.533 C 138.654 174.137,138.323 174.652,138.047 174.494 C 137.875 174.395,137.818 174.409,137.922 174.524 C 138.197 174.828,137.156 176.733,136.532 177.067 C 136.220 177.235,136.000 177.248,136.000 177.099 C 136.000 176.960,135.585 176.216,135.078 175.446 C 134.571 174.676,134.229 173.927,134.319 173.782 C 134.409 173.637,134.362 173.592,134.215 173.683 C 134.068 173.774,133.783 173.523,133.582 173.124 C 133.381 172.726,133.000 172.183,132.736 171.917 C 132.471 171.652,132.319 171.330,132.398 171.203 C 132.477 171.075,132.418 170.894,132.267 170.800 C 132.115 170.706,132.060 170.518,132.145 170.382 C 132.229 170.245,132.181 170.133,132.037 170.133 C 131.702 170.133,129.171 165.850,129.289 165.480 C 129.338 165.326,129.295 165.283,129.194 165.384 C 129.043 165.535,127.200 163.124,127.200 162.777 C 127.200 162.653,125.802 160.312,124.765 158.697 C 124.351 158.054,124.077 157.424,124.156 157.297 C 124.234 157.170,124.201 157.066,124.082 157.066 C 123.964 157.066,123.526 156.526,123.109 155.866 C 122.692 155.206,122.262 154.720,122.154 154.787 C 122.046 154.854,121.976 154.653,121.999 154.342 C 122.022 154.030,121.818 153.551,121.544 153.278 C 121.271 153.004,121.119 152.665,121.206 152.524 C 121.293 152.382,121.254 152.267,121.118 152.267 C 120.983 152.267,120.372 151.457,119.760 150.467 C 117.649 147.047,116.022 144.267,116.131 144.267 C 116.192 144.267,115.935 143.937,115.560 143.533 C 114.790 142.705,113.748 140.802,114.061 140.796 C 114.174 140.794,114.137 140.704,113.979 140.596 C 113.365 140.179,110.919 136.239,111.096 135.953 C 111.203 135.780,111.164 135.724,111.005 135.823 C 110.852 135.917,110.579 135.815,110.398 135.597 C 110.216 135.379,110.135 135.200,110.218 135.200 C 110.300 135.200,109.898 134.450,109.325 133.533 C 108.752 132.617,107.960 131.297,107.566 130.600 C 107.171 129.903,106.748 129.333,106.624 129.333 C 106.501 129.333,106.400 129.163,106.400 128.956 C 106.400 128.748,106.310 128.538,106.200 128.489 C 106.090 128.440,105.580 127.590,105.067 126.600 C 104.553 125.611,103.983 124.801,103.800 124.800 C 103.617 124.800,103.467 124.571,103.467 124.291 C 103.467 123.712,102.161 121.600,101.804 121.600 C 101.674 121.600,101.634 121.494,101.714 121.365 C 101.794 121.235,101.651 120.844,101.396 120.495 C 100.915 119.836,100.812 119.672,99.493 117.467 C 99.054 116.733,98.089 115.173,97.349 114.000 C 96.608 112.827,95.885 111.597,95.741 111.267 C 95.597 110.937,95.377 110.667,95.251 110.667 C 95.125 110.667,95.021 110.517,95.019 110.333 C 95.015 109.964,93.451 107.571,93.052 107.325 C 92.914 107.239,92.800 107.002,92.800 106.799 C 92.800 106.131,90.915 103.180,90.609 103.369 C 90.434 103.477,90.394 103.426,90.509 103.239 C 90.614 103.069,90.470 102.601,90.188 102.198 C 89.907 101.796,89.627 101.347,89.567 101.200 C 89.303 100.553,88.196 98.933,88.018 98.933 C 87.910 98.933,87.822 98.783,87.822 98.598 C 87.822 98.414,87.502 97.757,87.111 97.137 C 86.720 96.518,86.400 95.894,86.400 95.752 C 86.400 95.610,86.237 95.397,86.037 95.280 C 85.837 95.163,85.241 94.261,84.712 93.276 C 83.891 91.747,80.959 86.997,79.480 84.800 C 79.233 84.433,78.953 83.923,78.857 83.667 C 78.670 83.164,18.985 82.921,18.200 83.420 M200.719 83.369 C 200.422 83.667,200.504 84.000,200.874 84.000 C 201.062 84.000,201.392 84.255,201.608 84.566 C 202.569 85.952,204.354 87.996,204.936 88.377 C 205.286 88.606,205.758 89.185,205.985 89.664 C 206.213 90.142,207.235 91.421,208.258 92.506 C 209.280 93.590,210.042 94.599,209.950 94.747 C 209.858 94.896,209.917 94.934,210.082 94.832 C 210.257 94.723,210.686 95.118,211.123 95.790 C 211.939 97.045,212.551 97.621,212.864 97.427 C 212.975 97.358,213.067 97.474,213.067 97.685 C 213.067 97.896,213.245 98.216,213.464 98.398 C 213.682 98.579,213.784 98.852,213.689 99.005 C 213.594 99.159,213.645 99.203,213.804 99.105 C 214.114 98.914,215.076 99.991,215.342 100.826 C 215.431 101.109,215.617 101.272,215.754 101.187 C 215.892 101.102,216.075 101.220,216.163 101.448 C 216.251 101.677,216.430 101.797,216.561 101.716 C 216.693 101.635,216.800 101.741,216.800 101.952 C 216.800 102.162,216.976 102.481,217.191 102.660 C 217.407 102.838,217.557 103.081,217.525 103.199 C 217.493 103.317,217.587 103.452,217.733 103.499 C 218.088 103.612,219.066 104.815,219.280 105.400 C 219.373 105.657,219.694 105.867,219.992 105.867 C 220.290 105.867,220.533 105.995,220.533 106.152 C 220.533 106.310,220.714 106.619,220.936 106.841 C 221.157 107.062,221.259 107.372,221.161 107.529 C 221.064 107.687,221.106 107.741,221.254 107.649 C 221.402 107.558,221.709 107.689,221.936 107.941 C 222.162 108.194,222.780 108.862,223.307 109.427 C 223.835 109.991,224.267 110.547,224.267 110.661 C 224.267 110.775,224.445 111.016,224.664 111.198 C 224.882 111.379,224.996 111.632,224.917 111.760 C 224.837 111.889,224.929 111.940,225.119 111.874 C 225.445 111.762,226.667 113.346,226.667 113.880 C 226.667 114.014,226.967 114.198,227.333 114.290 C 227.700 114.383,228.000 114.610,228.000 114.796 C 228.000 114.982,228.179 115.283,228.397 115.464 C 228.615 115.645,228.712 115.930,228.613 116.097 C 228.497 116.290,228.577 116.282,228.835 116.073 C 229.189 115.787,229.237 113.718,229.220 99.539 L 229.200 83.333 215.053 83.258 C 207.272 83.217,200.822 83.267,200.719 83.369 M389.460 104.133 C 389.460 115.720,389.493 120.421,389.533 114.580 C 389.573 108.739,389.573 99.259,389.533 93.513 C 389.493 87.768,389.460 92.547,389.460 104.133 M389.458 210.000 C 389.458 218.067,389.492 221.405,389.533 217.419 C 389.575 213.433,389.575 206.833,389.533 202.752 C 389.492 198.672,389.458 201.933,389.458 210.000 " stroke="none" fill="#fb7c53" fill-rule="evenodd"></path><path id="path2" d="M229.468 83.250 C 229.199 83.981,229.198 116.794,229.467 116.897 C 229.643 116.964,229.706 111.415,229.653 100.476 C 229.596 88.753,229.658 83.851,229.866 83.601 C 230.070 83.355,230.074 83.195,229.878 83.074 C 229.723 82.978,229.538 83.057,229.468 83.250 M229.333 144.480 C 229.333 151.096,229.359 151.462,229.849 151.724 C 230.770 152.217,241.600 152.088,241.600 151.584 C 241.600 151.330,241.476 151.245,241.281 151.365 C 240.788 151.670,230.324 151.469,229.936 151.147 C 229.683 150.937,229.608 149.283,229.630 144.352 C 229.645 140.768,229.585 137.763,229.496 137.673 C 229.406 137.584,229.333 140.647,229.333 144.480 M251.102 223.844 C 250.720 224.344,250.255 224.914,250.068 225.110 C 249.880 225.306,248.529 226.906,247.064 228.666 C 245.599 230.426,243.860 232.479,243.200 233.230 C 242.133 234.443,240.954 235.846,238.406 238.933 C 237.286 240.292,234.038 244.111,233.871 244.267 C 233.792 244.340,232.477 245.900,230.947 247.733 C 227.602 251.743,225.515 254.219,225.330 254.400 C 225.254 254.473,224.654 255.188,223.996 255.988 C 223.338 256.788,222.515 257.748,222.166 258.121 C 221.817 258.494,220.897 259.580,220.122 260.533 C 218.186 262.913,215.415 266.219,213.771 268.110 C 213.017 268.977,212.227 269.930,212.016 270.227 C 211.128 271.478,212.946 269.770,214.075 268.293 C 214.702 267.472,215.782 266.185,216.474 265.432 C 217.167 264.680,218.480 263.120,219.392 261.966 C 220.304 260.811,221.329 259.567,221.669 259.200 C 222.500 258.303,226.371 253.741,227.184 252.700 C 227.542 252.242,228.570 251.027,229.469 250.000 C 230.368 248.973,231.619 247.473,232.247 246.667 C 232.876 245.860,233.948 244.587,234.629 243.837 C 235.310 243.088,236.047 242.248,236.268 241.971 C 236.947 241.120,242.235 234.808,242.389 234.667 C 242.522 234.544,244.470 232.254,245.793 230.667 C 248.973 226.849,251.320 224.064,251.625 223.744 C 251.949 223.406,252.136 223.491,253.065 224.399 C 254.396 225.698,254.465 225.435,253.169 224.001 C 252.000 222.707,251.971 222.704,251.102 223.844 M210.400 272.110 C 209.887 272.743,208.237 274.713,206.733 276.487 C 205.230 278.260,204.000 279.837,204.000 279.990 C 204.000 280.562,204.961 282.035,205.267 281.933 C 205.470 281.866,205.346 281.570,204.926 281.116 C 204.563 280.725,204.267 280.305,204.267 280.182 C 204.267 279.917,207.109 276.379,208.698 274.667 C 210.095 273.160,211.794 270.929,211.532 270.946 C 211.423 270.953,210.913 271.477,210.400 272.110 " stroke="none" fill="#fb7384" fill-rule="evenodd"></path><path id="path3" d="M17.666 182.600 L 17.733 282.000 52.333 282.068 L 86.933 282.135 86.933 261.436 L 86.933 240.736 85.971 239.153 C 85.442 238.281,84.952 237.626,84.882 237.695 C 84.813 237.765,85.186 238.460,85.711 239.241 L 86.667 240.660 86.667 261.125 L 86.667 281.590 86.067 281.735 C 85.737 281.814,70.287 281.847,51.733 281.806 L 18.000 281.733 17.933 182.683 C 17.879 103.618,17.933 83.589,18.200 83.420 C 18.438 83.269,18.400 83.207,18.066 83.204 C 17.622 83.200,17.603 88.056,17.666 182.600 M204.026 88.000 C 205.958 90.200,207.591 92.000,207.656 92.000 C 207.722 92.000,207.346 91.498,206.821 90.885 C 206.296 90.272,205.867 89.616,205.867 89.427 C 205.867 89.237,205.497 88.809,205.045 88.475 C 204.295 87.921,202.587 85.978,201.608 84.566 C 201.392 84.255,201.058 84.000,200.865 84.000 C 200.672 84.000,202.095 85.800,204.026 88.000 M80.263 86.067 C 80.573 86.617,81.075 87.367,81.378 87.733 L 81.930 88.400 81.464 87.623 C 81.207 87.196,80.761 86.446,80.472 85.956 C 79.750 84.732,79.565 84.829,80.263 86.067 M187.904 90.799 C 187.812 91.039,187.851 91.159,187.993 91.071 C 188.133 90.984,188.492 91.158,188.790 91.457 C 189.089 91.756,189.333 91.901,189.333 91.780 C 189.333 91.225,188.072 90.360,187.904 90.799 M84.267 92.355 C 84.267 92.689,85.733 95.192,85.931 95.196 C 86.040 95.198,85.748 94.570,85.284 93.800 C 84.299 92.168,84.267 92.121,84.267 92.355 M190.628 93.600 C 191.449 94.846,192.719 96.174,192.905 95.979 C 192.963 95.917,192.297 95.087,191.425 94.133 C 190.011 92.589,189.924 92.531,190.628 93.600 M209.597 94.354 C 210.538 95.406,211.359 96.267,211.420 96.267 C 211.703 96.267,208.873 93.001,208.319 92.688 C 208.080 92.553,208.655 93.303,209.597 94.354 M194.038 97.412 C 195.635 99.396,197.068 100.936,197.056 100.655 C 197.050 100.515,196.137 99.440,195.028 98.267 C 193.918 97.093,193.473 96.709,194.038 97.412 M213.453 98.733 C 214.319 99.723,215.071 100.533,215.123 100.533 C 215.360 100.533,214.637 99.528,213.890 98.817 C 213.437 98.386,213.067 97.856,213.067 97.639 C 213.067 97.422,212.988 97.323,212.891 97.420 C 212.795 97.516,212.527 97.446,212.297 97.264 C 212.066 97.082,212.586 97.743,213.453 98.733 M183.333 98.400 C 183.106 98.840,182.980 99.200,183.053 99.200 C 183.126 99.200,183.372 98.840,183.600 98.400 C 183.828 97.960,183.954 97.600,183.880 97.600 C 183.807 97.600,183.561 97.960,183.333 98.400 M87.800 98.444 C 87.837 98.616,88.023 98.946,88.214 99.178 C 88.405 99.410,88.799 99.900,89.091 100.267 C 89.382 100.633,89.246 100.303,88.787 99.533 C 87.970 98.160,87.668 97.826,87.800 98.444 M89.610 101.200 C 89.611 101.347,89.857 101.767,90.157 102.133 C 90.519 102.576,90.610 102.621,90.427 102.267 C 89.977 101.397,89.608 100.915,89.610 101.200 M215.742 101.214 C 215.737 101.369,216.181 101.909,216.728 102.414 C 217.275 102.920,217.515 103.084,217.261 102.779 C 217.007 102.474,216.800 102.064,216.800 101.868 C 216.800 101.672,216.722 101.589,216.626 101.685 C 216.531 101.780,216.295 101.650,216.102 101.396 C 215.908 101.141,215.746 101.060,215.742 101.214 M197.897 101.726 C 198.100 102.016,198.526 102.556,198.844 102.926 C 199.161 103.297,199.667 103.900,199.968 104.267 C 200.269 104.633,200.515 104.813,200.514 104.667 C 200.513 104.520,199.841 103.680,199.020 102.800 C 198.199 101.920,197.693 101.437,197.897 101.726 M179.930 104.146 C 179.536 104.799,179.269 105.333,179.337 105.333 C 179.518 105.333,180.855 103.166,180.743 103.054 C 180.690 103.002,180.325 103.493,179.930 104.146 M217.867 103.642 C 217.867 103.788,218.197 104.198,218.600 104.554 L 219.333 105.200 218.667 104.400 C 218.300 103.960,217.970 103.550,217.933 103.489 C 217.897 103.428,217.867 103.497,217.867 103.642 M200.800 105.150 C 200.800 105.196,201.190 105.586,201.667 106.017 L 202.533 106.800 201.750 105.933 C 201.020 105.125,200.800 104.944,200.800 105.150 M178.330 106.813 C 177.936 107.466,177.669 108.000,177.737 108.000 C 177.918 108.000,179.255 105.833,179.143 105.721 C 179.090 105.668,178.725 106.160,178.330 106.813 M222.181 108.707 C 225.987 113.056,226.857 113.970,226.083 112.807 C 225.744 112.298,225.197 111.659,224.867 111.388 C 224.537 111.117,224.267 110.795,224.267 110.674 C 224.267 110.553,223.877 110.036,223.400 109.527 C 222.923 109.017,222.083 108.118,221.533 107.528 C 220.983 106.938,220.533 106.323,220.533 106.161 C 220.533 105.999,220.345 105.867,220.114 105.867 C 219.862 105.867,220.686 107.000,222.181 108.707 M92.800 106.691 C 92.800 106.971,93.264 107.643,94.440 109.067 L 94.991 109.733 94.528 108.956 C 94.273 108.529,93.828 107.779,93.539 107.290 C 92.989 106.358,92.800 106.205,92.800 106.691 M202.679 107.309 C 203.423 108.286,204.533 109.388,204.533 109.149 C 204.533 109.017,204.029 108.434,203.413 107.854 C 202.796 107.274,202.466 107.029,202.679 107.309 M205.334 110.267 C 205.700 110.707,206.030 111.117,206.067 111.178 C 206.103 111.239,206.192 111.230,206.264 111.158 C 206.336 111.087,206.006 110.677,205.532 110.247 L 204.669 109.467 205.334 110.267 M175.701 111.267 C 175.527 111.597,175.192 112.162,174.959 112.523 C 174.697 112.927,174.663 113.100,174.870 112.972 C 175.219 112.757,176.378 110.667,176.148 110.667 C 176.077 110.667,175.876 110.937,175.701 111.267 M95.733 111.344 C 95.733 111.423,95.959 111.813,96.235 112.211 C 96.511 112.608,97.463 114.133,98.352 115.600 C 99.852 118.077,101.477 120.431,100.468 118.667 C 98.227 114.746,95.733 110.890,95.733 111.344 M229.147 113.867 C 229.147 114.673,229.197 115.003,229.258 114.600 C 229.319 114.197,229.319 113.537,229.258 113.133 C 229.197 112.730,229.147 113.060,229.147 113.867 M208.502 114.059 C 209.114 114.950,209.555 115.334,209.747 115.142 C 209.808 115.080,209.421 114.618,208.885 114.115 L 207.912 113.200 208.502 114.059 M227.893 115.277 C 228.465 115.890,228.949 116.429,228.967 116.474 C 228.986 116.519,229.082 116.345,229.181 116.086 C 229.280 115.828,229.275 115.703,229.169 115.809 C 228.930 116.048,228.000 115.237,228.000 114.790 C 228.000 114.610,227.742 114.395,227.427 114.312 C 226.964 114.191,227.055 114.378,227.893 115.277 M210.608 116.291 C 210.784 116.525,210.840 116.825,210.731 116.958 C 210.622 117.091,210.641 117.112,210.773 117.005 C 210.905 116.898,211.235 117.066,211.506 117.379 C 211.778 117.692,212.000 117.832,212.000 117.691 C 212.000 117.549,211.615 117.081,211.144 116.650 C 210.672 116.219,210.431 116.058,210.608 116.291 M212.958 119.067 C 213.198 119.433,213.522 119.733,213.677 119.733 C 213.833 119.733,213.678 119.433,213.333 119.067 C 212.989 118.700,212.665 118.400,212.614 118.400 C 212.563 118.400,212.718 118.700,212.958 119.067 M170.901 119.267 C 170.727 119.597,170.392 120.162,170.159 120.523 C 169.897 120.927,169.863 121.100,170.070 120.972 C 170.419 120.757,171.578 118.667,171.348 118.667 C 171.277 118.667,171.076 118.937,170.901 119.267 M215.244 121.663 C 215.733 122.284,216.894 123.574,217.823 124.529 C 219.034 125.774,218.812 125.453,217.042 123.400 C 214.523 120.479,213.640 119.625,215.244 121.663 M101.667 121.111 C 101.703 121.282,101.890 121.612,102.080 121.844 C 102.271 122.077,102.666 122.567,102.957 122.933 C 103.249 123.300,103.112 122.970,102.654 122.200 C 101.837 120.826,101.534 120.493,101.667 121.111 M103.467 124.222 C 103.467 124.577,103.633 124.800,103.899 124.800 C 104.270 124.800,104.281 124.733,103.975 124.333 C 103.778 124.077,103.584 123.817,103.542 123.756 C 103.501 123.694,103.467 123.904,103.467 124.222 M105.099 126.667 C 105.595 127.620,106.090 128.440,106.200 128.489 C 106.310 128.538,106.400 128.748,106.400 128.956 C 106.400 129.163,106.501 129.333,106.624 129.333 C 106.748 129.333,107.173 129.930,107.570 130.658 C 107.966 131.387,108.436 132.073,108.612 132.181 C 108.790 132.291,108.746 132.087,108.512 131.723 C 108.281 131.362,107.331 129.807,106.401 128.267 C 104.383 124.925,103.861 124.284,105.099 126.667 M166.460 126.732 C 166.298 127.063,165.841 127.873,165.445 128.533 C 164.913 129.419,164.865 129.588,165.262 129.180 C 165.559 128.875,165.885 128.363,165.987 128.042 C 166.096 127.697,166.300 127.532,166.486 127.639 C 166.659 127.738,166.714 127.724,166.609 127.608 C 166.505 127.492,166.544 127.162,166.698 126.875 C 166.851 126.589,166.926 126.304,166.865 126.243 C 166.804 126.181,166.621 126.402,166.460 126.732 M220.658 127.984 C 220.881 128.415,221.304 128.936,221.597 129.141 C 221.890 129.346,222.066 129.579,221.988 129.657 C 221.910 129.735,222.087 129.862,222.381 129.939 C 222.776 130.042,222.589 129.699,221.674 128.640 C 220.252 126.992,220.092 126.889,220.658 127.984 M224.473 132.138 C 225.209 133.231,226.936 135.098,226.921 134.785 C 226.914 134.647,226.239 133.813,225.419 132.933 C 224.600 132.053,224.174 131.696,224.473 132.138 M109.072 133.067 C 109.257 133.433,109.619 134.033,109.875 134.400 C 110.132 134.767,110.334 135.127,110.324 135.200 C 110.301 135.377,112.847 139.200,112.988 139.200 C 113.119 139.200,113.167 139.284,110.976 135.733 C 109.265 132.961,108.420 131.778,109.072 133.067 M162.569 133.400 L 162.089 134.267 162.638 133.600 C 163.126 133.009,163.342 132.533,163.124 132.533 C 163.082 132.533,162.832 132.923,162.569 133.400 M227.733 135.837 C 227.953 136.135,228.227 136.503,228.342 136.656 C 228.457 136.808,228.724 137.173,228.934 137.467 C 229.144 137.760,229.320 137.865,229.325 137.701 C 229.330 137.536,228.883 136.928,228.333 136.348 C 227.783 135.769,227.513 135.539,227.733 135.837 M160.270 137.061 C 160.040 137.491,160.062 137.559,160.394 137.432 C 160.617 137.346,160.800 137.109,160.800 136.905 C 160.800 136.384,160.601 136.443,160.270 137.061 M114.386 141.733 C 114.677 142.320,115.169 143.100,115.480 143.467 C 115.992 144.071,115.987 144.032,115.422 143.044 C 114.423 141.295,113.739 140.430,114.386 141.733 M118.817 148.933 C 119.212 149.667,119.716 150.447,119.937 150.667 C 120.159 150.887,120.053 150.576,119.703 149.977 C 118.694 148.250,118.026 147.463,118.817 148.933 M153.787 147.933 C 153.726 148.043,153.334 148.733,152.915 149.467 C 152.423 150.330,152.315 150.671,152.611 150.434 C 152.861 150.233,153.067 149.903,153.067 149.701 C 153.067 149.499,153.160 149.333,153.275 149.333 C 153.389 149.333,153.619 148.973,153.785 148.533 C 154.059 147.807,154.061 147.441,153.787 147.933 M241.600 151.731 C 241.600 151.905,242.140 152.572,242.800 153.214 C 243.460 153.855,243.995 154.295,243.989 154.190 C 243.970 153.846,241.600 151.407,241.600 151.731 M150.101 154.200 C 149.927 154.530,149.592 155.095,149.359 155.456 C 149.097 155.861,149.063 156.033,149.270 155.905 C 149.619 155.690,150.778 153.600,150.548 153.600 C 150.477 153.600,150.276 153.870,150.101 154.200 M121.981 154.363 C 121.981 154.656,122.067 154.874,122.172 154.848 C 122.277 154.821,122.557 155.040,122.796 155.333 L 123.229 155.867 122.968 155.333 C 122.402 154.180,121.981 153.767,121.981 154.363 M244.801 155.333 C 245.167 155.773,245.497 156.183,245.533 156.244 C 245.570 156.306,245.659 156.297,245.731 156.225 C 245.802 156.153,245.473 155.743,244.998 155.314 L 244.135 154.533 244.801 155.333 M246.361 157.267 C 246.652 157.670,247.523 158.600,248.295 159.333 C 249.572 160.546,249.535 160.480,247.883 158.600 C 246.036 156.497,245.403 155.943,246.361 157.267 M124.385 158.050 C 124.611 158.517,124.929 158.982,125.091 159.082 C 125.449 159.303,125.063 158.543,124.407 157.733 C 124.005 157.238,124.004 157.261,124.385 158.050 M147.105 159.267 L 146.628 160.133 147.181 159.504 C 147.658 158.960,147.900 158.400,147.657 158.400 C 147.616 158.400,147.367 158.790,147.105 159.267 M126.006 160.667 C 126.425 161.400,126.899 162.240,127.060 162.533 C 127.618 163.551,129.350 166.133,129.475 166.133 C 129.630 166.133,125.897 159.966,125.520 159.600 C 125.369 159.453,125.588 159.933,126.006 160.667 M250.470 161.883 C 250.654 162.258,251.428 163.199,252.190 163.973 L 253.576 165.381 253.581 179.662 C 253.584 187.516,253.650 194.005,253.727 194.082 C 253.899 194.255,253.942 189.102,253.879 175.735 L 253.830 165.470 253.194 164.668 C 251.795 162.905,250.143 161.217,250.470 161.883 M144.797 163.133 C 144.249 164.064,144.245 164.100,144.744 163.649 C 145.198 163.240,145.726 162.133,145.468 162.133 C 145.423 162.133,145.121 162.583,144.797 163.133 M129.949 167.067 C 130.175 167.507,130.559 168.107,130.803 168.400 C 131.046 168.693,130.976 168.453,130.647 167.867 C 129.920 166.572,129.376 165.948,129.949 167.067 M141.293 168.997 C 139.924 171.288,138.709 173.485,139.252 172.690 C 139.443 172.410,139.810 171.960,140.067 171.690 C 140.323 171.421,140.459 171.200,140.367 171.200 C 140.276 171.200,140.324 171.050,140.473 170.867 C 140.622 170.683,141.075 169.933,141.479 169.200 C 141.883 168.467,142.331 167.791,142.473 167.698 C 142.615 167.604,142.687 167.393,142.631 167.228 C 142.576 167.063,141.974 167.859,141.293 168.997 M132.429 171.579 C 132.509 171.788,132.748 172.025,132.960 172.107 C 133.269 172.225,133.290 172.150,133.063 171.727 C 132.742 171.127,132.207 171.002,132.429 171.579 M133.333 172.605 C 133.333 172.847,135.727 176.533,135.884 176.533 C 136.010 176.533,133.962 173.143,133.556 172.680 C 133.433 172.541,133.333 172.507,133.333 172.605 M137.981 174.600 C 137.576 175.297,137.064 176.167,136.842 176.533 C 136.480 177.132,136.480 177.159,136.848 176.800 C 137.305 176.353,139.044 173.333,138.845 173.333 C 138.775 173.333,138.386 173.903,137.981 174.600 M63.746 177.586 C 63.533 177.721,63.245 177.761,63.105 177.675 C 62.965 177.588,62.927 177.640,63.019 177.790 C 63.203 178.087,60.616 179.816,60.290 179.614 C 60.179 179.546,60.089 179.662,60.089 179.873 C 60.089 180.256,60.767 179.936,62.667 178.658 C 64.516 177.413,64.313 177.303,66.400 180.667 C 67.447 182.353,68.351 183.733,68.410 183.733 C 68.615 183.733,68.183 182.795,67.734 182.267 C 67.485 181.973,66.885 181.013,66.400 180.133 C 65.039 177.661,64.478 177.123,63.746 177.586 M57.499 181.467 C 56.489 182.120,55.559 182.591,55.432 182.512 C 55.304 182.433,55.200 182.503,55.200 182.667 C 55.200 182.831,55.050 182.878,54.867 182.773 C 54.683 182.667,54.618 182.675,54.722 182.790 C 54.826 182.905,54.646 183.230,54.322 183.512 C 53.998 183.795,55.053 183.226,56.667 182.249 C 59.870 180.308,59.935 180.264,59.578 180.272 C 59.443 180.276,58.508 180.813,57.499 181.467 M70.133 186.733 C 70.789 187.852,70.844 187.899,70.844 187.338 C 70.844 187.121,70.552 186.671,70.195 186.338 L 69.546 185.733 70.133 186.733 M54.386 188.200 C 54.677 188.750,55.174 189.500,55.489 189.867 L 56.063 190.533 55.597 189.756 C 55.340 189.329,54.894 188.579,54.606 188.090 C 53.891 186.879,53.729 186.961,54.386 188.200 M72.106 189.925 C 73.741 192.691,74.994 194.667,75.113 194.667 C 75.190 194.667,74.979 194.217,74.644 193.667 C 74.309 193.117,73.818 192.247,73.552 191.733 C 73.287 191.220,72.756 190.440,72.374 190.000 C 71.708 189.235,71.696 189.231,72.106 189.925 M57.077 192.533 C 57.702 193.752,60.519 198.133,60.677 198.133 C 60.820 198.133,57.369 192.497,57.003 192.133 C 56.856 191.987,56.889 192.167,57.077 192.533 M75.738 195.886 C 77.370 198.555,78.395 200.117,78.397 199.937 C 78.402 199.622,75.702 195.212,75.386 195.017 C 75.228 194.919,75.386 195.310,75.738 195.886 M253.676 196.133 C 253.678 196.867,253.730 197.135,253.791 196.730 C 253.853 196.324,253.851 195.724,253.788 195.396 C 253.724 195.068,253.674 195.400,253.676 196.133 M61.333 199.393 C 61.333 199.548,61.580 199.958,61.882 200.304 L 62.432 200.933 61.963 200.133 C 61.347 199.080,61.333 199.065,61.333 199.393 M62.943 202.000 C 62.944 202.147,63.191 202.567,63.490 202.933 C 63.853 203.376,63.943 203.421,63.760 203.067 C 63.311 202.197,62.941 201.715,62.943 202.000 M80.556 203.744 C 80.788 204.105,81.313 204.975,81.722 205.679 C 82.130 206.382,82.514 206.908,82.575 206.847 C 82.724 206.698,80.809 203.504,80.432 203.271 C 80.268 203.170,80.323 203.383,80.556 203.744 M64.320 204.333 C 65.174 205.676,67.161 208.978,67.502 209.620 C 68.021 210.597,70.003 213.634,70.535 214.267 C 70.965 214.778,70.967 214.773,70.597 214.133 C 69.209 211.731,64.197 203.733,64.081 203.733 C 64.003 203.733,64.110 204.003,64.320 204.333 M84.221 209.768 C 84.810 210.843,85.405 211.427,84.948 210.484 C 84.722 210.016,84.404 209.552,84.242 209.451 C 84.031 209.321,84.025 209.411,84.221 209.768 M85.883 212.423 C 87.030 214.345,87.478 214.840,86.800 213.436 C 86.438 212.686,85.937 211.906,85.687 211.703 C 85.373 211.447,85.433 211.667,85.883 212.423 M183.598 212.530 C 183.717 212.722,183.521 213.129,182.027 215.800 C 181.474 216.790,181.076 217.600,181.144 217.600 C 181.236 217.600,183.563 213.678,184.163 212.511 C 184.207 212.426,184.074 212.356,183.867 212.356 C 183.660 212.356,183.539 212.434,183.598 212.530 M71.612 216.200 C 72.570 217.976,72.860 218.427,73.449 219.052 C 73.959 219.594,73.959 219.592,73.465 218.800 C 73.190 218.360,72.554 217.310,72.052 216.467 C 70.947 214.613,70.662 214.440,71.612 216.200 M88.634 216.920 C 88.873 217.285,89.621 218.494,90.297 219.607 C 90.972 220.720,91.576 221.580,91.638 221.518 C 91.700 221.456,91.349 220.797,90.860 220.053 C 90.370 219.310,89.736 218.216,89.451 217.623 C 89.166 217.030,88.768 216.480,88.566 216.401 C 88.289 216.293,88.305 216.419,88.634 216.920 M180.103 219.075 C 179.860 219.446,179.710 219.798,179.769 219.858 C 179.828 219.917,180.079 219.613,180.326 219.183 C 180.876 218.224,180.713 218.145,180.103 219.075 M184.653 228.133 C 184.653 233.267,184.689 235.329,184.733 232.716 C 184.777 230.103,184.777 225.903,184.733 223.383 C 184.689 220.862,184.653 223.000,184.653 228.133 M74.546 221.000 C 75.668 222.944,77.393 225.600,77.534 225.600 C 77.604 225.600,77.490 225.330,77.280 225.000 C 77.071 224.670,76.261 223.350,75.480 222.067 C 73.994 219.622,73.286 218.814,74.546 221.000 M178.800 220.800 C 178.473 220.941,178.415 221.036,178.651 221.048 C 178.970 221.063,178.964 221.123,178.618 221.400 C 178.389 221.583,178.133 222.021,178.049 222.372 C 177.965 222.723,177.991 222.903,178.106 222.772 C 178.397 222.439,179.530 220.529,179.422 220.552 C 179.373 220.562,179.093 220.674,178.800 220.800 M92.944 223.933 C 93.837 225.323,94.133 225.718,94.133 225.520 C 94.133 225.264,92.770 223.200,92.601 223.200 C 92.530 223.200,92.684 223.530,92.944 223.933 M176.679 224.675 C 176.284 225.192,176.000 225.733,176.048 225.877 C 176.096 226.020,176.461 225.597,176.861 224.935 C 177.732 223.493,177.659 223.389,176.679 224.675 M77.985 226.583 C 78.211 227.050,78.529 227.515,78.691 227.615 C 79.049 227.836,78.663 227.077,78.007 226.267 C 77.605 225.772,77.604 225.794,77.985 226.583 M175.076 227.395 C 174.439 228.333,174.118 229.225,174.624 228.653 C 175.034 228.190,176.046 226.400,175.898 226.400 C 175.818 226.400,175.448 226.848,175.076 227.395 M247.583 227.800 L 246.800 228.667 247.667 227.883 C 248.143 227.453,248.533 227.063,248.533 227.017 C 248.533 226.811,248.313 226.992,247.583 227.800 M96.428 229.543 C 96.702 230.025,96.972 230.283,97.028 230.115 C 97.084 229.948,96.859 229.554,96.529 229.239 L 95.929 228.667 96.428 229.543 M80.267 230.480 C 80.267 230.729,80.417 230.935,80.600 230.937 C 80.822 230.940,80.800 231.028,80.533 231.200 C 80.185 231.425,80.190 231.459,80.567 231.463 C 80.806 231.465,81.203 231.737,81.450 232.067 C 81.696 232.397,81.631 232.187,81.306 231.600 C 80.531 230.203,80.267 229.918,80.267 230.480 M244.917 231.000 L 244.133 231.867 245.000 231.083 C 245.477 230.653,245.867 230.263,245.867 230.217 C 245.867 230.011,245.647 230.192,244.917 231.000 M97.418 231.133 C 98.599 233.173,103.547 241.067,103.644 241.067 C 103.717 241.067,103.504 240.617,103.171 240.067 C 102.837 239.517,102.437 238.827,102.282 238.533 C 102.127 238.240,101.930 237.940,101.844 237.867 C 101.473 237.551,100.280 235.272,100.400 235.111 C 100.474 235.013,100.449 234.998,100.345 235.077 C 100.241 235.156,99.971 234.876,99.745 234.454 C 99.118 233.284,97.570 230.933,97.428 230.933 C 97.359 230.933,97.354 231.023,97.418 231.133 M243.054 233.133 L 242.000 234.267 243.133 233.213 C 244.187 232.232,244.389 232.000,244.187 232.000 C 244.144 232.000,243.634 232.510,243.054 233.133 M82.542 234.067 C 82.941 234.763,83.454 235.513,83.681 235.733 C 83.977 236.020,83.958 235.913,83.613 235.356 C 83.347 234.929,82.894 234.179,82.606 233.690 C 82.317 233.200,82.021 232.800,81.948 232.800 C 81.876 232.800,82.143 233.370,82.542 234.067 M170.876 234.600 C 170.085 235.797,169.274 237.333,169.434 237.333 C 169.498 237.333,169.881 236.763,170.285 236.067 C 170.690 235.370,171.196 234.530,171.408 234.200 C 171.621 233.870,171.737 233.600,171.666 233.600 C 171.595 233.600,171.240 234.050,170.876 234.600 M240.383 236.333 L 239.600 237.200 240.467 236.417 C 240.943 235.986,241.333 235.596,241.333 235.550 C 241.333 235.344,241.113 235.525,240.383 236.333 M168.689 238.038 C 168.435 238.700,168.715 238.791,169.054 238.156 C 169.218 237.850,169.241 237.600,169.105 237.600 C 168.968 237.600,168.781 237.797,168.689 238.038 M238.576 238.400 C 238.161 238.841,238.004 239.131,238.228 239.045 C 238.566 238.915,239.638 237.600,239.405 237.600 C 239.365 237.600,238.992 237.960,238.576 238.400 M236.110 241.409 C 234.512 243.157,234.037 243.733,234.193 243.733 C 234.271 243.733,235.020 242.953,235.857 242.000 C 237.550 240.071,237.743 239.622,236.110 241.409 M166.656 241.615 C 166.336 242.064,166.133 242.489,166.205 242.560 C 166.276 242.631,166.585 242.264,166.891 241.745 C 167.576 240.585,167.442 240.511,166.656 241.615 M165.467 243.733 C 165.239 244.173,165.113 244.533,165.186 244.533 C 165.260 244.533,165.506 244.173,165.733 243.733 C 165.961 243.293,166.087 242.933,166.014 242.933 C 165.940 242.933,165.694 243.293,165.467 243.733 M106.182 245.333 C 107.294 247.252,109.139 250.133,109.254 250.133 C 109.327 250.133,109.113 249.683,108.779 249.133 C 108.446 248.583,107.975 247.759,107.733 247.301 C 107.491 246.844,106.956 246.064,106.544 245.568 C 106.072 245.000,105.938 244.913,106.182 245.333 M231.583 246.733 L 230.800 247.600 231.667 246.817 C 232.143 246.386,232.533 245.996,232.533 245.950 C 232.533 245.744,232.313 245.925,231.583 246.733 M163.767 246.373 C 163.566 246.501,163.456 246.769,163.523 246.968 C 163.607 247.222,163.741 247.150,163.965 246.733 C 164.319 246.070,164.300 246.036,163.767 246.373 M162.859 248.003 C 162.607 248.298,162.400 248.600,162.400 248.675 C 162.400 248.750,162.091 249.300,161.714 249.897 C 161.337 250.495,161.082 251.038,161.148 251.104 C 161.214 251.170,161.603 250.649,162.012 249.945 C 162.420 249.242,162.929 248.397,163.141 248.067 C 163.621 247.322,163.471 247.288,162.859 248.003 M109.744 251.133 C 110.637 252.523,110.933 252.918,110.933 252.721 C 110.933 252.430,109.621 250.400,109.433 250.400 C 109.344 250.400,109.484 250.730,109.744 251.133 M111.690 254.267 C 112.095 255.064,112.783 255.904,112.782 255.600 C 112.781 255.453,112.474 254.973,112.100 254.533 C 111.726 254.093,111.541 253.973,111.690 254.267 M158.127 255.919 C 157.691 256.608,157.333 257.294,157.333 257.445 C 157.333 257.736,157.665 257.285,158.641 255.667 C 159.515 254.217,159.067 254.437,158.127 255.919 M184.921 267.733 C 184.921 273.380,184.956 275.690,185.000 272.867 C 185.043 270.043,185.043 265.423,185.000 262.600 C 184.956 259.777,184.921 262.087,184.921 267.733 M221.183 259.000 L 220.400 259.867 221.267 259.083 C 221.743 258.653,222.133 258.263,222.133 258.217 C 222.133 258.011,221.913 258.192,221.183 259.000 M115.379 260.187 C 115.930 261.096,116.424 261.798,116.476 261.746 C 116.631 261.591,115.907 260.405,114.921 259.200 C 114.621 258.833,114.827 259.277,115.379 260.187 M155.902 259.728 C 155.235 260.735,154.943 261.464,155.424 260.920 C 155.794 260.501,156.853 258.667,156.724 258.667 C 156.658 258.667,156.288 259.144,155.902 259.728 M154.173 262.684 C 153.364 263.987,153.084 264.647,153.565 264.120 C 153.917 263.734,155.267 261.333,155.132 261.333 C 155.067 261.333,154.635 261.941,154.173 262.684 M217.414 263.406 C 216.906 263.804,215.351 265.867,215.557 265.867 C 215.598 265.867,216.201 265.207,216.898 264.400 C 218.256 262.827,218.328 262.687,217.414 263.406 M212.917 268.867 L 212.133 269.733 213.000 268.950 C 213.477 268.519,213.867 268.129,213.867 268.083 C 213.867 267.877,213.647 268.059,212.917 268.867 M209.433 272.988 C 208.571 273.971,208.004 274.692,208.173 274.589 C 208.549 274.359,211.302 271.200,211.126 271.200 C 211.056 271.200,210.294 272.004,209.433 272.988 M205.223 277.963 C 203.796 279.588,203.452 280.328,203.975 280.651 C 204.108 280.733,204.154 280.560,204.077 280.266 C 203.976 279.881,204.364 279.244,205.458 277.999 C 206.294 277.046,206.918 276.267,206.845 276.267 C 206.772 276.267,206.042 277.030,205.223 277.963 M204.436 281.465 C 204.585 281.852,203.694 281.884,194.833 281.813 C 189.461 281.769,185.066 281.823,185.067 281.933 C 185.067 282.043,189.507 282.133,194.933 282.133 C 204.849 282.133,205.881 282.033,204.536 281.202 C 204.384 281.107,204.342 281.218,204.436 281.465 " stroke="none" fill="#f68166" fill-rule="evenodd"></path><path id="path4" d="M258.533 83.132 C 335.607 83.313,389.333 83.314,389.333 83.133 C 389.333 83.023,353.423 82.963,309.533 82.999 C 265.643 83.035,242.693 83.095,258.533 83.132 M230.345 118.067 C 230.929 118.763,231.678 119.573,232.009 119.867 L 232.611 120.400 232.330 119.867 C 232.040 119.316,229.649 116.800,229.415 116.800 C 229.343 116.800,229.761 117.370,230.345 118.067 M232.800 120.660 C 232.800 120.886,249.079 139.467,249.277 139.467 C 249.353 139.467,249.234 139.257,249.013 139.000 C 248.791 138.743,248.322 138.186,247.971 137.762 C 247.620 137.337,247.145 136.797,246.915 136.562 C 246.685 136.326,245.735 135.233,244.805 134.133 C 243.875 133.033,243.042 132.073,242.954 132.000 C 242.559 131.671,235.733 123.732,235.733 123.602 C 235.733 123.521,235.073 122.785,234.267 121.965 C 233.460 121.145,232.800 120.558,232.800 120.660 M229.871 138.276 C 229.874 138.418,230.384 139.080,231.005 139.748 C 231.625 140.417,232.852 141.797,233.729 142.815 C 234.607 143.833,235.477 144.763,235.663 144.880 C 235.848 144.997,236.000 145.198,236.000 145.325 C 236.000 145.453,236.450 146.024,237.000 146.595 C 237.913 147.541,239.369 149.217,240.771 150.933 C 241.071 151.300,241.319 151.480,241.322 151.333 C 241.326 151.187,240.580 150.218,239.665 149.181 C 238.025 147.325,237.176 146.352,232.810 141.333 C 230.015 138.121,229.866 137.965,229.871 138.276 M249.600 139.862 C 249.600 139.965,251.959 142.738,254.842 146.024 L 260.084 152.000 268.191 152.000 C 273.528 152.000,276.242 152.091,276.133 152.267 C 276.043 152.413,276.089 152.533,276.235 152.533 C 276.382 152.533,276.576 152.414,276.666 152.267 C 276.772 152.097,280.120 152.016,285.949 152.044 C 297.847 152.101,303.592 152.036,303.404 151.848 C 303.320 151.764,293.591 151.652,281.784 151.599 C 259.721 151.499,259.200 151.473,259.200 150.489 C 259.200 150.314,258.930 149.953,258.600 149.685 C 258.270 149.417,257.594 148.719,257.098 148.132 C 256.602 147.546,255.642 146.467,254.963 145.733 C 254.285 145.000,253.322 143.920,252.822 143.333 C 250.967 141.154,249.600 139.681,249.600 139.862 M302.734 159.867 C 302.737 160.453,302.791 160.662,302.855 160.330 C 302.919 159.999,302.917 159.519,302.850 159.264 C 302.783 159.009,302.731 159.280,302.734 159.867 M302.729 171.733 C 302.729 172.247,302.783 172.457,302.850 172.200 C 302.918 171.943,302.918 171.523,302.850 171.267 C 302.783 171.010,302.729 171.220,302.729 171.733 M303.283 175.867 C 303.284 176.747,303.334 177.075,303.393 176.595 C 303.453 176.116,303.451 175.396,303.391 174.995 C 303.330 174.595,303.281 174.987,303.283 175.867 M303.301 183.467 C 303.301 185.153,303.344 185.843,303.397 185.000 C 303.450 184.157,303.450 182.777,303.397 181.933 C 303.344 181.090,303.301 181.780,303.301 183.467 M302.729 189.600 C 302.729 190.113,302.783 190.323,302.850 190.067 C 302.918 189.810,302.918 189.390,302.850 189.133 C 302.783 188.877,302.729 189.087,302.729 189.600 M253.888 189.667 C 253.876 190.070,254.000 190.400,254.162 190.400 C 254.333 190.400,254.382 190.596,254.279 190.867 C 254.149 191.210,254.181 191.255,254.400 191.037 C 254.620 190.819,254.595 190.504,254.304 189.837 C 253.912 188.937,253.910 188.937,253.888 189.667 M303.295 204.667 C 303.294 205.987,303.339 206.560,303.395 205.941 C 303.451 205.322,303.451 204.242,303.396 203.541 C 303.341 202.840,303.295 203.347,303.295 204.667 M252.797 226.203 C 252.285 226.806,251.695 227.548,251.485 227.850 L 251.104 228.400 251.714 227.867 C 252.496 227.185,253.963 225.340,253.830 225.207 C 253.774 225.151,253.309 225.600,252.797 226.203 M303.291 230.267 C 303.292 231.440,303.339 231.887,303.396 231.260 C 303.452 230.632,303.451 229.672,303.394 229.126 C 303.337 228.580,303.290 229.093,303.291 230.267 M250.800 228.737 C 250.426 229.012,248.208 231.733,248.358 231.733 C 248.425 231.733,249.104 231.013,249.867 230.133 C 251.189 228.607,251.393 228.302,250.800 228.737 M389.176 230.501 C 389.098 230.703,389.074 231.453,389.122 232.167 L 389.210 233.467 389.338 231.800 C 389.468 230.115,389.432 229.831,389.176 230.501 M246.933 233.122 C 244.836 235.621,244.818 236.007,246.912 233.600 C 247.677 232.720,248.205 232.002,248.085 232.005 C 247.965 232.007,247.447 232.510,246.933 233.122 M302.699 234.800 C 302.677 235.093,302.598 235.633,302.522 236.000 L 302.385 236.667 302.671 236.012 C 302.828 235.653,302.907 235.113,302.848 234.812 C 302.742 234.281,302.738 234.280,302.699 234.800 M388.658 236.027 C 388.560 236.335,388.612 236.719,388.774 236.880 C 388.987 237.093,389.067 236.940,389.067 236.320 C 389.067 235.335,388.913 235.225,388.658 236.027 M244.117 236.600 L 243.333 237.467 244.200 236.683 C 244.677 236.253,245.067 235.863,245.067 235.817 C 245.067 235.611,244.847 235.792,244.117 236.600 M263.911 237.244 C 263.581 237.575,263.730 237.851,264.152 237.689 C 264.414 237.589,264.938 237.872,265.552 238.445 C 266.092 238.950,266.773 239.522,267.067 239.718 C 267.360 239.913,266.880 239.401,266.000 238.580 C 264.342 237.033,264.208 236.948,263.911 237.244 M241.653 239.267 C 241.060 240.037,240.146 241.123,239.621 241.682 C 238.711 242.649,238.407 243.125,238.891 242.826 C 239.376 242.526,243.222 237.867,242.984 237.867 C 242.845 237.867,242.246 238.497,241.653 239.267 M388.637 238.247 C 388.557 238.457,388.536 238.907,388.591 239.247 C 388.664 239.703,388.725 239.602,388.825 238.867 C 388.964 237.831,388.890 237.587,388.637 238.247 M262.713 238.751 C 262.083 239.421,261.983 239.733,262.400 239.733 C 262.547 239.733,262.667 239.593,262.667 239.421 C 262.667 239.249,262.865 238.889,263.108 238.621 C 263.754 237.907,263.395 238.025,262.713 238.751 M300.849 240.399 C 300.682 240.766,300.648 241.067,300.775 241.067 C 300.996 241.067,301.395 239.973,301.233 239.811 C 301.189 239.767,301.016 240.032,300.849 240.399 M260.974 240.693 C 260.703 241.065,260.531 241.420,260.593 241.482 C 260.654 241.543,260.970 241.235,261.294 240.797 C 261.618 240.359,261.789 240.004,261.675 240.008 C 261.560 240.013,261.245 240.321,260.974 240.693 M268.400 240.961 C 269.361 241.702,270.019 241.911,269.200 241.215 C 268.760 240.842,268.280 240.539,268.133 240.543 C 267.987 240.547,268.107 240.735,268.400 240.961 M298.153 243.952 C 296.783 245.369,296.495 245.761,297.220 245.226 C 298.493 244.285,299.220 243.558,299.850 242.596 C 300.555 241.520,300.336 241.695,298.153 243.952 M254.369 248.467 C 251.379 251.950,248.678 255.100,248.367 255.467 C 248.055 255.833,246.996 257.063,246.015 258.200 C 245.033 259.337,244.328 260.265,244.448 260.264 C 244.568 260.262,245.308 259.487,246.092 258.542 C 246.875 257.597,247.756 256.549,248.049 256.212 C 248.342 255.875,249.381 254.653,250.358 253.495 C 251.334 252.338,252.674 250.778,253.334 250.029 C 253.994 249.280,255.434 247.598,256.534 246.291 C 257.634 244.985,258.872 243.515,259.286 243.024 C 259.700 242.534,259.986 242.133,259.922 242.133 C 259.857 242.133,257.358 244.983,254.369 248.467 M270.133 242.222 C 270.133 242.303,272.128 243.648,273.467 244.471 C 274.559 245.143,277.372 246.451,277.483 246.339 C 277.546 246.276,276.969 245.935,276.199 245.583 C 274.824 244.952,272.566 243.638,271.144 242.640 C 270.458 242.159,270.133 242.025,270.133 242.222 M237.946 243.527 C 237.341 244.308,237.304 244.625,237.882 244.074 C 238.224 243.748,238.437 243.415,238.357 243.334 C 238.276 243.253,238.091 243.340,237.946 243.527 M294.133 246.683 C 293.620 246.953,293.294 247.180,293.409 247.187 C 293.735 247.207,295.467 246.444,295.467 246.280 C 295.467 246.052,295.146 246.149,294.133 246.683 M231.719 250.846 C 227.910 255.269,227.317 256.000,227.544 256.000 C 227.622 256.000,228.687 254.837,229.910 253.415 C 231.133 251.993,232.894 249.944,233.825 248.862 C 234.755 247.779,235.469 246.846,235.411 246.788 C 235.353 246.730,233.691 248.556,231.719 250.846 M278.967 246.915 C 279.576 247.301,282.377 248.005,283.189 247.977 C 283.562 247.964,282.967 247.746,281.867 247.493 C 280.767 247.240,279.567 246.945,279.200 246.837 C 278.688 246.687,278.634 246.705,278.967 246.915 M286.600 248.188 C 286.930 248.252,287.470 248.252,287.800 248.188 C 288.130 248.125,287.860 248.073,287.200 248.073 C 286.540 248.073,286.270 248.125,286.600 248.188 M224.716 259.079 C 222.361 262.001,222.587 261.993,225.051 259.067 C 226.101 257.820,226.864 256.806,226.747 256.813 C 226.629 256.820,225.716 257.840,224.716 259.079 M384.933 258.667 C 384.832 259.128,384.805 259.560,384.873 259.628 C 384.941 259.696,385.073 259.369,385.167 258.900 C 385.389 257.788,385.174 257.573,384.933 258.667 M239.382 265.932 C 236.811 268.901,234.751 271.373,234.804 271.426 C 234.898 271.521,237.067 269.340,237.067 269.152 C 237.067 269.036,240.939 264.501,242.867 262.360 C 244.160 260.923,244.436 260.533,244.161 260.533 C 244.104 260.533,241.953 262.963,239.382 265.932 M384.005 261.932 C 383.813 262.556,383.370 263.893,383.021 264.904 C 382.329 266.901,382.323 267.661,383.014 265.806 C 383.794 263.708,384.591 261.036,384.471 260.916 C 384.406 260.851,384.196 261.308,384.005 261.932 M221.333 263.017 C 220.275 264.217,219.648 265.067,219.819 265.067 C 220.000 265.067,222.476 262.117,222.365 262.033 C 222.311 261.992,221.847 262.435,221.333 263.017 M218.410 266.467 L 217.786 267.333 218.626 266.550 C 219.517 265.720,219.596 265.600,219.250 265.600 C 219.131 265.600,218.753 265.990,218.410 266.467 M216.874 268.067 C 216.235 268.894,216.243 269.143,216.890 268.554 C 217.281 268.198,217.600 267.868,217.600 267.820 C 217.600 267.600,217.105 267.768,216.874 268.067 M381.053 270.037 C 380.905 270.424,380.835 270.790,380.895 270.851 C 380.956 270.911,381.133 270.594,381.289 270.147 C 381.635 269.152,381.426 269.055,381.053 270.037 M380.057 272.457 C 379.741 273.144,379.536 273.759,379.601 273.824 C 379.667 273.889,379.966 273.368,380.267 272.667 C 380.978 271.007,380.804 270.833,380.057 272.457 M213.172 272.467 C 212.303 273.398,211.595 274.400,211.806 274.400 C 211.857 274.400,212.468 273.740,213.165 272.933 C 214.594 271.277,214.600 270.938,213.172 272.467 M231.184 275.533 C 227.187 280.185,226.671 280.838,228.430 279.025 C 229.179 278.251,230.139 277.171,230.563 276.623 C 231.305 275.664,232.722 274.001,234.105 272.467 C 234.469 272.063,234.695 271.733,234.608 271.733 C 234.521 271.733,232.980 273.443,231.184 275.533 M378.852 275.070 C 378.608 275.582,378.464 276.000,378.531 276.000 C 378.713 276.000,379.523 274.367,379.401 274.245 C 379.343 274.187,379.096 274.559,378.852 275.070 M210.332 275.891 C 210.003 276.271,209.389 276.961,208.968 277.424 C 207.503 279.038,205.600 281.362,205.600 281.538 C 205.600 281.760,205.904 281.433,208.139 278.800 C 209.136 277.627,210.254 276.337,210.625 275.933 C 210.996 275.530,211.217 275.200,211.115 275.200 C 211.013 275.200,210.661 275.511,210.332 275.891 M378.024 276.495 C 377.729 276.972,377.310 278.254,377.533 278.000 C 377.827 277.663,378.426 276.267,378.277 276.267 C 378.215 276.267,378.101 276.369,378.024 276.495 M375.957 280.200 C 375.321 281.190,374.707 282.227,374.594 282.505 C 374.481 282.783,373.990 283.563,373.503 284.239 C 372.483 285.654,372.190 286.133,372.346 286.133 C 372.527 286.133,374.504 283.216,375.869 280.933 C 377.453 278.284,377.390 278.400,377.240 278.400 C 377.171 278.400,376.594 279.210,375.957 280.200 M226.394 280.956 C 226.390 281.090,225.960 281.680,225.436 282.267 C 224.913 282.853,224.178 283.693,223.803 284.133 C 223.428 284.573,222.869 285.220,222.561 285.570 C 222.252 285.920,222.133 286.160,222.296 286.103 C 222.554 286.013,224.079 284.292,226.097 281.813 C 226.444 281.387,226.654 280.965,226.564 280.875 C 226.474 280.785,226.397 280.821,226.394 280.956 M219.093 289.632 C 216.167 292.977,215.984 293.300,216.683 293.881 C 217.049 294.184,217.078 294.138,216.921 293.511 C 216.775 292.931,216.925 292.583,217.717 291.665 C 218.254 291.043,218.824 290.371,218.983 290.172 C 219.142 289.974,219.924 289.044,220.720 288.106 C 221.516 287.168,222.111 286.400,222.043 286.400 C 221.975 286.400,220.648 287.854,219.093 289.632 M371.305 287.274 C 370.997 287.751,369.557 289.439,368.105 291.026 C 364.634 294.822,363.122 296.604,364.113 295.733 C 366.086 293.998,372.582 286.396,372.084 286.403 C 371.965 286.405,371.614 286.797,371.305 287.274 M219.350 296.030 C 222.163 298.265,228.721 302.831,227.867 301.959 C 227.607 301.694,223.968 299.036,221.765 297.502 C 221.161 297.082,220.023 296.212,219.236 295.569 C 218.449 294.926,217.691 294.400,217.552 294.400 C 217.412 294.400,218.222 295.134,219.350 296.030 M361.867 297.346 C 359.829 299.177,357.279 301.190,355.467 302.399 C 354.513 303.035,353.253 303.880,352.667 304.276 C 352.080 304.672,350.905 305.366,350.055 305.818 C 349.206 306.269,348.186 306.896,347.789 307.210 C 347.141 307.722,347.579 307.509,350.933 305.675 C 351.525 305.352,353.977 303.760,356.164 302.279 C 358.435 300.741,363.661 296.266,363.183 296.267 C 363.119 296.267,362.527 296.753,361.867 297.346 M228.267 302.250 C 228.267 302.650,240.974 309.341,241.712 309.329 C 241.870 309.326,239.900 308.271,237.333 306.985 C 232.705 304.666,230.370 303.401,229.600 302.795 C 229.168 302.456,228.267 302.087,228.267 302.250 M344.267 308.933 C 343.841 309.446,344.275 309.451,344.949 308.942 C 345.384 308.613,345.397 308.549,345.033 308.542 C 344.794 308.537,344.449 308.713,344.267 308.933 M243.718 310.137 C 245.697 311.079,249.890 312.599,250.055 312.434 C 250.116 312.373,249.588 312.111,248.883 311.852 C 248.177 311.593,246.520 310.966,245.200 310.459 C 242.005 309.233,241.655 309.156,243.718 310.137 M341.733 310.027 C 340.853 310.397,339.533 310.974,338.800 311.310 C 338.067 311.646,336.829 312.131,336.049 312.388 C 335.270 312.644,334.696 312.918,334.774 312.996 C 334.929 313.151,335.200 313.059,338.879 311.594 C 341.589 310.515,344.021 309.363,343.600 309.358 C 343.453 309.357,342.613 309.658,341.733 310.027 M250.800 312.800 C 251.534 313.115,251.795 313.115,251.600 312.800 C 251.509 312.653,251.172 312.542,250.851 312.552 C 250.288 312.570,250.286 312.579,250.800 312.800 M252.065 313.220 C 252.266 313.421,256.085 314.404,256.204 314.285 C 256.315 314.174,252.719 313.067,252.247 313.067 C 252.062 313.067,251.980 313.136,252.065 313.220 M332.400 313.545 C 331.667 313.790,331.247 314.024,331.467 314.065 C 331.687 314.106,332.467 313.904,333.200 313.616 C 334.822 312.978,334.249 312.927,332.400 313.545 M256.933 314.667 C 257.227 314.793,257.707 314.892,258.000 314.888 C 258.429 314.882,258.403 314.838,257.867 314.667 C 256.955 314.375,256.254 314.375,256.933 314.667 M326.322 315.259 C 325.179 315.556,324.294 315.850,324.356 315.912 C 324.471 316.027,329.106 314.957,329.311 314.769 C 329.561 314.540,328.280 314.750,326.322 315.259 M260.822 315.566 C 261.038 315.760,266.440 316.831,266.723 316.737 C 266.881 316.684,265.751 316.377,264.212 316.054 C 261.518 315.489,260.586 315.355,260.822 315.566 M322.000 316.267 C 321.271 316.580,322.488 316.580,323.467 316.267 C 324.117 316.058,324.113 316.053,323.333 316.045 C 322.893 316.041,322.293 316.141,322.000 316.267 M319.333 316.800 C 318.615 316.983,318.601 317.004,319.200 317.009 C 319.567 317.011,320.167 316.917,320.533 316.800 C 321.430 316.513,320.461 316.513,319.333 316.800 M269.600 317.338 C 270.765 317.609,271.983 317.794,273.867 317.986 C 276.030 318.207,275.172 317.944,272.203 317.476 C 269.473 317.046,268.014 316.968,269.600 317.338 M312.400 317.867 L 311.333 318.058 312.400 318.064 C 312.987 318.067,313.827 317.979,314.267 317.867 L 315.067 317.663 314.267 317.669 C 313.827 317.673,312.987 317.762,312.400 317.867 M276.200 318.322 C 276.530 318.385,277.070 318.385,277.400 318.322 C 277.730 318.258,277.460 318.206,276.800 318.206 C 276.140 318.206,275.870 318.258,276.200 318.322 M278.515 318.427 C 278.151 318.570,278.332 318.635,279.133 318.648 C 279.757 318.658,280.267 318.621,280.267 318.564 C 280.267 318.338,278.997 318.239,278.515 318.427 M308.972 318.338 C 308.902 318.451,309.315 318.498,309.889 318.444 C 310.463 318.389,310.933 318.297,310.933 318.239 C 310.933 318.040,309.098 318.133,308.972 318.338 M306.870 318.589 C 307.201 318.652,307.681 318.650,307.936 318.583 C 308.191 318.516,307.920 318.464,307.333 318.467 C 306.747 318.470,306.538 318.525,306.870 318.589 M282.605 318.860 C 283.084 318.919,283.804 318.918,284.205 318.857 C 284.605 318.796,284.213 318.748,283.333 318.749 C 282.453 318.751,282.125 318.801,282.605 318.860 M302.327 318.859 C 302.801 318.918,303.641 318.919,304.194 318.861 C 304.747 318.804,304.360 318.755,303.333 318.754 C 302.307 318.753,301.854 318.800,302.327 318.859 M287.788 319.131 C 288.772 319.182,290.452 319.182,291.522 319.132 C 292.591 319.081,291.787 319.039,289.733 319.039 C 287.680 319.038,286.805 319.080,287.788 319.131 M296.727 319.126 C 297.201 319.185,298.041 319.186,298.594 319.128 C 299.147 319.070,298.760 319.022,297.733 319.021 C 296.707 319.020,296.254 319.067,296.727 319.126 " stroke="none" fill="#f37cb0" fill-rule="evenodd"></path></g></svg>